<?xml version="1.0" encoding="UTF-8"?>
<!-- Generated by Pixelmator Pro 3.3.2 -->
<svg width="500" height="500" viewBox="0 0 500 500" xmlns="http://www.w3.org/2000/svg" xmlns:xlink="http://www.w3.org/1999/xlink">
    <path id="address-book-thin-svgrepo-com" fill="#f2f2f2" stroke="none" d="M 453 18 L 105 18 C 88.991165 18.017212 76.017891 30.498383 76 45.899994 L 76 101.700012 L 27.666666 101.700012 C 22.327915 101.700012 18 105.863739 18 111 C 18 116.136261 22.327915 120.299988 27.666666 120.299988 L 76 120.299988 L 76 194.700012 L 27.666666 194.700012 C 22.327915 194.700012 18 198.863739 18 204 C 18 209.136261 22.327915 213.299988 27.666666 213.299988 L 76 213.299988 L 76 287.700012 L 27.666666 287.700012 C 22.327915 287.700012 18 291.86377 18 297 C 18 302.13623 22.327915 306.299988 27.666666 306.299988 L 76 306.299988 L 76 380.700012 L 27.666666 380.700012 C 22.327915 380.700012 18 384.86377 18 390 C 18 395.13623 22.327915 399.299988 27.666666 399.299988 L 76 399.299988 L 76 455.100006 C 76.017891 470.501587 88.991165 482.982788 105 483 L 453 483 C 469.00882 482.982788 481.982117 470.501587 482 455.100006 L 482 45.899994 C 481.982117 30.498383 469.00882 18.017212 453 18 Z M 462.666656 455.100006 C 462.661011 460.233978 458.336395 464.394531 453 464.399994 L 105 464.399994 C 99.663605 464.394531 95.33902 460.233978 95.333336 455.100006 L 95.333336 45.899994 C 95.33902 40.766022 99.663605 36.605499 105 36.600006 L 453 36.600006 C 458.336395 36.605499 462.661011 40.766022 462.666656 45.899994 Z"/>
    <path id="address-book-thin-svgrepo-com-copy" fill="#ff6900" stroke="none" d="M 324.186249 284.798859 C 357.524261 265.304932 373.297638 226.843536 362.776581 190.701202 C 352.255493 154.558929 318.012726 129.573669 279 129.573669 C 239.987289 129.573669 205.744507 154.558929 195.223419 190.701202 C 184.702347 226.843536 200.475754 265.304932 233.813782 284.798859 C 202.406036 293.976379 174.87851 312.588928 155.26384 337.910004 C 152.057449 342.016724 152.91861 347.846619 157.187256 350.931366 C 161.455902 354.016113 167.515625 353.187622 170.722 349.080902 C 196.283829 316.295715 236.397141 297.000885 278.99646 297 C 321.595795 296.999115 361.70993 316.292236 387.273285 349.076355 C 390.479614 353.183105 396.539337 354.011597 400.808014 350.926819 C 405.076691 347.842102 405.937836 342.012207 402.731445 337.905457 C 383.117737 312.586426 355.591858 293.975433 324.186249 284.798859 Z M 211.333328 213.299988 C 211.333328 177.346252 241.628723 148.200012 279 148.200012 C 316.371277 148.200012 346.666656 177.346252 346.666656 213.299988 C 346.666656 249.253738 316.371277 278.399994 279 278.399994 C 241.646103 278.35968 211.375229 249.23703 211.333328 213.299988 Z"/>
</svg>
