<?xml version="1.0" encoding="UTF-8"?>
<!-- Generated by Pixelmator Pro 3.3.2 -->
<svg width="500" height="500" viewBox="0 0 500 500" xmlns="http://www.w3.org/2000/svg" xmlns:xlink="http://www.w3.org/1999/xlink">
    <g id="airdrop-svgrepo-com">
        <path id="Path" fill="none" stroke="#f2f2f2" stroke-width="34.470707" stroke-linecap="round" stroke-linejoin="round" d="M 298.947662 235.783447 C 307.910095 198.095001 275.048004 165.23175 237.360001 174.194153 C 219.665054 178.560455 205.187347 193.038605 200.820587 210.734711 C 191.858231 248.422668 224.720734 281.282471 262.408722 272.320068 C 280.333496 267.953796 294.811188 253.478378 298.947662 235.783447 Z"/>
        <path id="path1" fill="none" stroke="#f2f2f2" stroke-width="34.470707" stroke-linecap="round" stroke-linejoin="round" d="M 388.109589 370.216919 C 427.406219 333.448151 451.9953 281.282471 451.9953 223.141846 C 451.9953 111.456329 361.45459 21.143524 249.999268 21.143524 C 138.542831 21.143524 48 111.686127 48 223.141846 C 48 281.512268 72.818901 334.137543 112.575127 370.906281"/>
        <path id="path2" fill="none" stroke="#f2f2f2" stroke-width="34.470707" stroke-linecap="round" stroke-linejoin="round" d="M 158.077835 309.548462 C 136.935806 287.027588 123.8367 256.693359 123.8367 223.141846 C 123.8367 153.511932 180.368896 96.980225 249.999268 96.980225 C 319.630096 96.980225 376.162079 153.511932 376.162079 223.141846 C 376.162079 256.693359 363.063202 286.797791 341.921143 309.548462"/>
        <path id="path3" fill="none" stroke="#f2f2f2" stroke-width="34.470707" stroke-linecap="round" stroke-linejoin="round" d="M 210.93248 358.037231 L 177.840118 399.174561 C 151.642395 432.036682 174.852432 480.523163 216.907394 480.523163 L 282.861359 480.523163 C 324.915619 480.523163 348.355713 431.806854 321.928162 399.174561 L 288.836243 358.037231 C 269.073059 332.988525 230.925491 332.988525 210.93248 358.037231 Z"/>
    </g>
</svg>
