<?xml version="1.0" encoding="UTF-8"?>
<!-- Generated by Pixelmator Pro 3.3.2 -->
<svg width="500" height="500" viewBox="0 0 500 500" xmlns="http://www.w3.org/2000/svg" xmlns:xlink="http://www.w3.org/1999/xlink">
    <g id="users-svgrepo-com">
        <path id="Path" fill="none" stroke="#f2f2f2" stroke-width="36.585354" stroke-linecap="round" stroke-linejoin="round" d="M 307.926788 137.35495 C 307.926788 169.347137 281.992645 195.281769 249.999985 195.281769 C 218.007324 195.281769 192.073181 169.347137 192.073181 137.35495 C 192.073181 105.362762 218.007324 79.428162 249.999985 79.428162 C 281.992645 79.428162 307.926788 105.362762 307.926788 137.35495 Z"/>
        <path id="path1" fill="none" stroke="#f2f2f2" stroke-width="36.585354" stroke-linecap="round" stroke-linejoin="round" d="M 365.853607 342.232941 C 365.853607 386.135376 313.975586 421.915833 249.999985 421.915833 C 186.024399 421.915833 134.146362 386.232941 134.146362 342.232941 C 134.146362 298.232971 186.024399 262.574432 249.999985 262.574432 C 313.975586 262.574432 365.853607 298.232971 365.853607 342.232941 Z"/>
        <path id="path2" fill="none" stroke="#f2f2f2" stroke-width="36.585354" stroke-linecap="round" stroke-linejoin="round" d="M 430.487732 190.477142 C 430.7341 204.586639 422.426758 217.447632 409.460938 223.018372 C 396.495056 228.591522 381.446289 225.769562 371.377991 215.879303 C 361.312164 205.989075 358.224365 190.993469 363.565826 177.930817 C 368.909698 164.868347 381.619476 156.332977 395.731659 156.330841 C 414.756012 156.168396 430.312103 171.452759 430.487732 190.477142 L 430.487732 190.477142 Z"/>
        <path id="path3" fill="none" stroke="#f2f2f2" stroke-width="36.585354" stroke-linecap="round" stroke-linejoin="round" d="M 69.512482 190.477142 C 69.264915 204.586639 77.574188 217.447632 90.540039 223.018372 C 103.506134 228.591522 118.554176 225.769562 128.621246 215.879303 C 138.68808 205.989075 141.775146 190.993469 136.433197 177.930817 C 131.091492 164.868347 118.381248 156.332977 104.26857 156.330841 C 85.244179 156.168396 69.686874 171.452759 69.512482 190.477142 Z"/>
        <path id="path4" fill="#f2f2f2" stroke="none" d="M 413.826782 380.940247 C 403.763367 380.037842 394.875549 387.46463 393.975555 397.528076 C 393.07309 407.591492 400.499939 416.479248 410.563354 417.379272 L 413.826782 380.940247 Z M 481.707245 342.232941 L 499.890167 344.225647 C 500.036469 342.898804 500.036469 341.559784 499.890167 340.232941 L 481.707245 342.232941 Z M 410.563354 267.111023 C 400.499939 268.011017 393.07309 276.898804 393.975555 286.962219 C 394.875549 297.025635 403.765778 304.452454 413.826782 303.550049 L 410.563354 267.111023 Z M 89.436378 417.379272 C 99.498817 416.479248 106.925644 407.591492 106.024666 397.528076 C 105.123688 387.46463 96.235893 380.037842 86.173454 380.940247 L 89.436378 417.379272 Z M 18.29274 342.232941 L 0.109571 340.232941 C -0.036283 341.559784 -0.036521 342.898804 0.108844 344.225647 L 18.29274 342.232941 Z M 86.172722 303.550049 C 96.235161 304.452454 105.123199 297.025635 106.024666 286.962219 C 106.926125 276.898804 99.49955 268.011017 89.437111 267.111023 L 86.172722 303.550049 Z M 410.563354 417.379272 C 455.290192 421.384155 494.999908 388.864624 499.890167 344.225647 L 463.524292 340.240265 C 460.802368 365.074402 438.709717 383.167084 413.826782 380.940247 L 410.563354 417.379272 Z M 499.890167 340.232941 C 494.98526 295.60614 455.280426 263.103699 410.563354 267.111023 L 413.826782 303.550049 C 438.704834 301.32077 460.795013 319.403687 463.524292 344.23053 L 499.890167 340.232941 Z M 86.173454 380.940247 C 61.289551 383.167084 39.197369 365.074402 36.476635 340.240265 L 0.108844 344.225647 C 4.999087 388.864624 44.708824 421.384155 89.436378 417.379272 L 86.173454 380.940247 Z M 36.475906 344.23053 C 39.205414 319.403687 61.294926 301.32077 86.172722 303.550049 L 89.437111 267.111023 C 44.720535 263.103699 5.015672 295.60614 0.109571 340.232941 L 36.475906 344.23053 Z"/>
    </g>
</svg>
