<?xml version="1.0" encoding="UTF-8"?>
<!-- Generated by Pixelmator Pro 3.3.2 -->
<svg width="500" height="500" viewBox="0 0 500 500" xmlns="http://www.w3.org/2000/svg" xmlns:xlink="http://www.w3.org/1999/xlink">
    <g id="document-svgrepo-com">
        <path id="Path" fill="none" stroke="#ff6900" stroke-width="47.76923" stroke-linecap="round" stroke-linejoin="round" d="M 329.615387 27.076935 L 170.384613 27.076935 C 100.032005 27.076935 43 84.108887 43 154.461548 L 43 345.538452 C 43 415.889832 100.032005 472.923065 170.384613 472.923065 L 329.615387 472.923065 C 399.966736 472.923065 457 415.889832 457 345.538452 L 457 154.461548 C 457 84.108887 399.966736 27.076935 329.615387 27.076935 Z"/>
        <path id="path1" fill="#ff6900" stroke="none" d="M 345.538452 178.346161 C 358.729126 178.346161 369.423065 167.652557 369.423065 154.461548 C 369.423065 141.270538 358.729126 130.576935 345.538452 130.576935 L 345.538452 178.346161 Z M 154.461533 130.576935 C 141.270538 130.576935 130.57692 141.270538 130.57692 154.461548 C 130.57692 167.652557 141.270538 178.346161 154.461533 178.346161 L 154.461533 130.576935 Z M 345.538452 273.884613 C 358.729126 273.884613 369.423065 263.190674 369.423065 250 C 369.423065 236.809326 358.729126 226.115387 345.538452 226.115387 L 345.538452 273.884613 Z M 154.461533 226.115387 C 141.270538 226.115387 130.57692 236.809326 130.57692 250 C 130.57692 263.190674 141.270538 273.884613 154.461533 273.884613 L 154.461533 226.115387 Z M 250 369.423096 C 263.190674 369.423096 273.884613 358.729126 273.884613 345.538452 C 273.884613 332.347778 263.190674 321.653839 250 321.653839 L 250 369.423096 Z M 154.461533 321.653839 C 141.270538 321.653839 130.57692 332.347778 130.57692 345.538452 C 130.57692 358.729126 141.270538 369.423096 154.461533 369.423096 L 154.461533 321.653839 Z M 345.538452 130.576935 L 154.461533 130.576935 L 154.461533 178.346161 L 345.538452 178.346161 L 345.538452 130.576935 Z M 345.538452 226.115387 L 154.461533 226.115387 L 154.461533 273.884613 L 345.538452 273.884613 L 345.538452 226.115387 Z M 250 321.653839 L 154.461533 321.653839 L 154.461533 369.423096 L 250 369.423096 L 250 321.653839 Z"/>
    </g>
</svg>
