<?xml version="1.0" encoding="UTF-8"?>
<!-- Generated by Pixelmator Pro 3.3.2 -->
<svg width="500" height="500" viewBox="0 0 500 500" xmlns="http://www.w3.org/2000/svg" xmlns:xlink="http://www.w3.org/1999/xlink">
    <g id="arrow-down-a-z-svgrepo-com">
        <path id="Path" fill="#f2f2f2" stroke="none" d="M 255.086411 327.143494 C 260.267456 320.290771 258.915161 310.534302 252.062408 305.353271 C 245.209686 300.172241 235.453247 301.524536 230.272217 308.377258 Z M 171.720917 385.802429 C 166.539063 392.655151 167.893219 402.411591 174.745544 407.592621 C 181.597855 412.775757 191.353485 411.421387 196.535538 404.568634 Z M 168.572693 395.185516 C 168.572693 403.776337 175.537216 410.741089 184.128235 410.741089 C 192.719238 410.741089 199.683792 403.776337 199.683792 395.185516 Z M 199.683792 104.815308 C 199.683792 96.224304 192.719238 89.259766 184.128235 89.259766 C 175.537216 89.259766 168.572693 96.224304 168.572693 104.815308 Z M 171.72258 404.570679 C 176.905685 411.421387 186.661514 412.773651 193.512985 407.590576 C 200.364075 402.40744 201.71637 392.653076 196.533875 385.800354 Z M 137.962067 308.375183 C 132.778961 301.524536 123.02314 300.172241 116.171654 305.355347 C 109.320152 310.538452 107.967651 320.292847 113.150757 327.145569 Z M 230.272217 308.377258 L 171.720917 385.802429 L 196.535538 404.568634 L 255.086411 327.143494 Z M 199.683792 395.185516 L 199.683792 104.815308 L 168.572693 104.815308 L 168.572693 395.185516 Z M 196.533875 385.800354 L 137.962067 308.375183 L 113.150757 327.145569 L 171.72258 404.570679 Z"/>
        <path id="path1" fill="none" stroke="#ff6900" stroke-width="31.111094" stroke-linecap="round" stroke-linejoin="round" d="M 322.593323 104.815308 L 289.594849 184.003418 L 355.591827 184.003418 L 322.593323 104.815308 Z"/>
        <path id="path2" fill="#ff6900" stroke="none" d="M 360.086334 235.241302 C 363.39032 243.172577 372.497589 246.922485 380.426788 243.6185 C 388.358032 240.314514 392.107971 231.207245 388.803986 223.278076 Z M 369.950653 178.021393 C 366.646667 170.090973 357.539398 166.340424 349.610229 169.644012 C 341.678955 172.947784 337.929047 182.055054 341.233032 189.985443 Z M 256.382721 223.278076 C 253.07872 231.207245 256.828644 240.314514 264.759888 243.6185 C 272.689056 246.922485 281.796326 243.172577 285.100311 235.241302 Z M 303.953644 189.985443 C 307.257629 182.055054 303.507721 172.947784 295.576477 169.644012 C 287.647278 166.340424 278.540039 170.090973 275.236023 178.021393 Z M 270.741516 275.926331 C 262.150696 275.926331 255.185974 282.891052 255.185974 291.481873 C 255.185974 300.072693 262.150696 307.037415 270.741516 307.037415 Z M 374.44516 291.481873 L 385.44397 302.480713 C 389.892853 298.031799 391.224396 291.340851 388.816406 285.529297 C 386.408386 279.715668 380.73584 275.926331 374.44516 275.926331 Z M 270.741516 395.185516 L 259.742706 384.186707 C 255.293823 388.63562 253.962265 395.326538 256.37027 401.138123 C 258.778259 406.951752 264.450867 410.741089 270.741516 410.741089 Z M 374.44516 410.741089 C 383.03595 410.741089 390.000702 403.776337 390.000702 395.185516 C 390.000702 386.594727 383.03595 379.629974 374.44516 379.629974 Z M 388.803986 223.278076 L 369.950653 178.021393 L 341.233032 189.985443 L 360.086334 235.241302 Z M 285.100311 235.241302 L 303.953644 189.985443 L 275.236023 178.021393 L 256.382721 223.278076 Z M 270.741516 307.037415 L 374.44516 307.037415 L 374.44516 275.926331 L 270.741516 275.926331 Z M 363.44635 280.483063 L 259.742706 384.186707 L 281.740326 406.184326 L 385.44397 302.480713 Z M 270.741516 410.741089 L 374.44516 410.741089 L 374.44516 379.629974 L 270.741516 379.629974 Z"/>
    </g>
    <g id="arrow-down-a-z-svgrepo-com-copy"/>
</svg>
