<?xml version="1.0" encoding="UTF-8"?>
<!-- Generated by Pixelmator Pro 3.3.2 -->
<svg width="500" height="500" viewBox="0 0 500 500" xmlns="http://www.w3.org/2000/svg" xmlns:xlink="http://www.w3.org/1999/xlink">
    <path id="Path" fill="#f2f2f2" stroke="none" visibility="hidden" d="M 466.634308 238.016846 L 466.634308 142.767914 C 466.634308 115.700958 447.196594 93.680389 423.304382 93.680389 L 407.597107 93.680389 L 407.597107 65.34903 C 407.597107 39.240753 388.847717 18 365.801758 18 L 60.086456 18 C 36.879963 18 18 39.388702 18 65.678833 L 18 433.912476 C 18 460.979431 37.437714 483 61.329948 483 L 423.304657 483 C 447.196899 483 466.634613 460.979431 466.634613 433.912476 L 466.634613 338.663208 C 475.558929 335.22699 482 325.648804 482 314.391479 L 482 262.288269 C 482 251.031281 475.558594 241.453094 466.634308 238.016846 Z M 60.086456 37.677612 L 365.801758 37.677612 C 379.270233 37.677612 390.227539 50.090851 390.227539 65.34903 L 390.227539 93.680054 L 60.086456 93.680054 C 46.457432 93.680054 35.36956 81.118835 35.36956 65.678833 C 35.36956 50.239136 46.457432 37.677612 60.086456 37.677612 Z M 423.304382 463.322388 L 61.329948 463.322388 C 47.015472 463.322388 35.36956 450.129333 35.36956 433.912476 L 35.36956 104.244141 C 42.31451 109.972717 50.857475 113.357971 60.086456 113.357971 L 398.912323 113.357971 L 423.304382 113.357971 C 437.619141 113.357971 449.26474 126.551392 449.26474 142.767914 L 449.26474 236.655151 L 449.26474 340.025269 L 449.26474 433.912476 C 449.26474 450.129333 437.619141 463.322388 423.304382 463.322388 Z"/>
    <path id="Path-copy" fill="#f2f2f2" stroke="none" visibility="hidden" d="M 449.630157 314.391785 C 449.630157 317.675842 447.271698 320.347656 444.372864 320.347656 L 412.590027 320.347656 C 397.011322 320.347656 384.336975 305.989136 384.336975 288.340027 C 384.336975 270.691254 397.011322 256.332764 412.590027 256.332764 L 444.372864 256.332764 C 447.271698 256.332764 449.630157 259.004517 449.630157 262.288574 Z M 466.26474 142.767914 L 466.26474 236.655151 L 412.590302 236.655151 C 387.433807 236.655151 366.967682 259.84082 366.967682 288.340027 C 366.967682 316.839233 387.433807 340.025269 412.590302 340.025269 L 466.26474 340.025269 C 466.26474 340.025269 466.26474 126.551392 466.26474 142.767914 Z"/>
    <path id="Arrow" fill="none" stroke="#f2f2f2" stroke-width="25" d="M 65 250 L 196 378 L 196 378 L 435 378 L 435 122 L 196 122 L 196 122 Z"/>
    <path id="Plus" fill="#ff6900" fill-rule="evenodd" stroke="none" d="M 348.388641 208.029755 L 305.918396 250.5 L 348.388641 292.970276 L 327.970245 313.388672 L 285.5 270.918396 L 243.029739 313.388672 L 222.611343 292.970276 L 265.081604 250.5 L 222.611343 208.029755 L 243.029739 187.611359 L 285.5 230.081604 L 327.970245 187.611359 L 348.388641 208.029755 Z"/>
</svg>
