<?xml version="1.0" encoding="UTF-8"?>
<!-- Generated by Pixelmator Pro 3.3.2 -->
<svg width="500" height="500" viewBox="0 0 500 500" xmlns="http://www.w3.org/2000/svg" xmlns:xlink="http://www.w3.org/1999/xlink">
    <path id="finger-print-outline-svgrepo-com-copy" fill="#f2f2f2" stroke="none" d="M 75.358803 202.335541 C 73.222809 202.320343 71.14296 201.649841 69.400299 200.414581 C 64.68782 196.912354 63.594856 190.307404 66.927971 185.473877 C 87.284698 155.592407 113.173058 132.114136 144.023865 115.679352 C 208.571335 81.137817 291.216644 80.888824 355.968658 115.465912 C 386.810577 131.900696 412.707825 155.165558 433.064575 184.833557 C 436.383148 189.670349 435.291992 196.264313 430.592224 199.774261 C 428.374176 201.432007 425.568726 202.09729 422.842499 201.61203 C 420.116272 201.12677 417.712708 199.534271 416.202881 197.213013 C 397.704865 170.319702 374.271057 149.18927 346.515106 134.461975 C 287.517029 103.086456 212.066391 103.086456 153.272888 134.675415 C 125.312393 149.616119 101.878586 170.960022 83.380547 197.817749 C 81.754814 200.698212 78.664795 202.438507 75.358803 202.335541 Z M 309.91922 464.438477 C 309.016266 464.40094 308.120819 464.25766 307.251251 464.011566 C 274.559509 454.62027 253.180038 442.027374 230.768982 419.189423 C 201.981415 389.521423 186.160263 350.035217 186.160263 307.774353 C 186.160263 273.197235 214.529831 245.023315 249.471558 245.023315 C 284.4133 245.023315 312.791748 273.197235 312.791748 307.774353 C 312.791748 330.612274 331.912323 349.181458 355.55069 349.181458 C 379.189026 349.181458 398.309601 330.612274 398.309601 307.774353 C 398.309601 227.307892 331.494354 161.995575 249.267014 161.995575 C 190.882599 161.995575 137.433929 195.718933 113.386497 248.011459 C 105.382538 265.299988 101.25605 285.576691 101.25605 307.774353 C 101.25605 324.422546 102.687874 350.675537 115.022858 384.825775 C 117.086105 390.375183 114.409225 396.56488 109.064362 398.48584 C 106.497681 399.463318 103.643379 399.351654 101.160896 398.176727 C 98.678406 397.00177 96.782501 394.865173 95.911186 392.260559 C 85.99221 365.196533 80.910843 336.598785 80.899323 307.774353 C 80.899323 282.161682 85.630547 258.861267 94.87957 238.620148 C 122.226425 179.035126 182.869736 140.438263 249.267014 140.438263 C 342.80661 140.438263 418.87088 215.355316 418.87088 307.560913 C 418.87088 342.138 390.501282 370.31192 355.55069 370.31192 C 320.600067 370.31192 292.230469 342.138 292.230469 307.560913 C 292.23938 284.722961 273.118805 266.118164 249.480453 266.118164 C 225.842102 266.118164 206.721527 284.687378 206.721527 307.52533 C 206.721527 343.987793 220.292694 378.173584 245.167206 403.786255 C 264.732452 423.849487 283.408356 434.91275 312.391571 443.272461 C 317.940979 444.76651 321.026947 450.742798 319.586243 456.292206 C 318.661591 460.931946 314.648499 464.31369 309.91922 464.438477 Z"/>
    <path id="finger-print-outline-svgrepo-com" fill="#ff6900" stroke="none" d="M 369.539825 90.280121 C 367.876526 90.284332 366.242676 89.842072 364.808594 88.999481 C 325.340179 67.869049 291.216644 58.904602 250.307526 58.904602 C 209.602966 58.904602 170.952744 68.936249 135.797577 88.999481 C 130.826233 91.809784 124.698753 89.853241 121.817329 84.695129 C 119.148117 79.52832 120.950081 73.176666 125.934921 70.181274 C 163.850296 48.677124 206.718674 37.433533 250.307526 37.56073 C 294.089172 37.56073 332.330322 47.592346 374.271057 70.003448 C 379.360962 72.802063 381.277893 79.157532 378.58429 84.303833 C 376.994507 87.890656 373.462769 90.224335 369.539825 90.280121 Z M 203.840103 459.991821 C 201.09111 460.01828 198.466034 458.850128 196.645447 456.790222 C 178.761047 438.185486 169.067368 426.197327 155.32724 400.406799 C 141.097977 374.153839 133.743225 342.138 133.743225 307.774353 C 133.743225 244.382996 185.955704 192.730774 250.102982 192.730774 C 314.250244 192.730774 366.498322 244.382996 366.498322 307.774353 C 366.608429 311.517761 364.674255 315.024933 361.449493 316.929138 C 358.224701 318.833374 354.219543 318.833374 350.994781 316.929138 C 347.769989 315.024933 345.835785 311.517761 345.945923 307.774353 C 345.945923 256.122131 302.973572 214.074677 250.147476 214.074677 C 197.321335 214.074677 154.304504 256.122131 154.304504 307.774353 C 154.304504 338.509521 160.876633 366.896912 173.416183 389.948303 C 186.578247 414.493774 195.649399 424.952271 211.452759 441.600525 C 215.335358 445.892212 215.335358 452.427368 211.452759 456.719116 C 209.435013 458.755005 206.705811 459.928284 203.840103 459.991821 Z M 351.246338 420.505646 C 326.780884 420.505646 305.196899 414.102478 287.517029 401.509552 C 256.950378 380.084656 238.707184 345.137329 238.603973 307.809906 C 238.44693 304.034973 240.371338 300.4776 243.616852 298.543365 C 246.86232 296.60907 250.906876 296.60907 254.152359 298.543365 C 257.397888 300.4776 259.322296 304.034973 259.165253 307.809906 C 259.235352 338.134399 274.12674 366.509094 299.042725 383.794159 C 313.636627 394.039215 330.70285 398.91275 351.26413 398.91275 C 358.425079 398.785522 365.56366 398.071655 372.608002 396.778351 C 378.15741 395.711151 383.502289 399.55304 384.524963 405.529358 C 385.609924 411.271851 381.842773 416.809204 376.103058 417.908783 C 367.914124 419.526764 359.59314 420.384155 351.246338 420.470062 Z"/>
</svg>
