<?xml version="1.0" encoding="UTF-8"?>
<!-- Generated by Pixelmator Pro 3.3.2 -->
<svg width="500" height="500" viewBox="0 0 500 500" xmlns="http://www.w3.org/2000/svg" xmlns:xlink="http://www.w3.org/1999/xlink">
    <g id="backspace-svgrepo-com">
        <path id="Path" fill="none" stroke="#ff6900" stroke-width="30" stroke-linecap="round" stroke-linejoin="round" d="M 35.356228 290.648895 L 115.025368 390.466003 C 122.81868 400.719818 134.438782 406.773041 146.782288 407.003296 L 267.915863 406.759094 L 371.785339 406.759094 C 430.078003 407.125397 477.622223 356.822632 478 294.382019 L 478 205.415344 C 477.641724 142.958344 430.091034 92.634613 371.785339 93.002014 L 146.782288 93.246216 C 134.444305 93.467743 122.82486 99.505615 115.025368 109.748657 L 35.356228 209.60202 C 17.547924 233.249695 17.547924 266.997711 35.356228 290.648895 L 35.356228 290.648895 Z"/>
        <path id="path1" fill="#ff6900" stroke="none" d="M 237.197128 193.749878 C 229.012619 185.753235 215.897507 185.904602 207.900818 194.087708 C 199.904129 202.270844 200.053314 215.38678 208.237823 223.383453 L 237.197128 193.749878 Z M 250.638168 264.817017 C 258.819916 272.813721 271.937805 272.661804 279.934479 264.480042 C 287.931152 256.295532 287.779236 243.18045 279.597473 235.183746 L 250.638168 264.817017 Z M 279.625092 235.211365 C 271.457184 227.19812 258.342072 227.325195 250.328812 235.493134 C 242.315552 243.661072 242.442596 256.776184 250.607773 264.789429 L 279.625092 235.211365 Z M 292.842407 306.223022 C 301.010345 314.236237 314.128235 314.109192 322.141479 305.941223 C 330.151978 297.773315 330.027649 284.658203 321.859711 276.644958 L 292.842407 306.223022 Z M 279.597473 264.817017 C 287.779236 256.820374 287.931152 243.705261 279.934479 235.520721 C 271.937805 227.338989 258.819916 227.187073 250.638168 235.183746 L 279.597473 264.817017 Z M 208.237823 276.61731 C 200.053314 284.614014 199.904129 297.729095 207.900818 305.913635 C 215.897507 314.095398 229.012619 314.247314 237.197128 306.25061 L 208.237823 276.61731 Z M 250.607773 235.211365 C 242.442596 243.224609 242.315552 256.339722 250.328812 264.50769 C 258.342072 272.675598 271.457184 272.802673 279.625092 264.789429 L 250.607773 235.211365 Z M 321.859711 223.355865 C 330.027649 215.34259 330.151978 202.226379 322.141479 194.058716 C 314.128235 185.891327 301.010345 185.765625 292.842407 193.778351 L 321.859711 223.355865 Z M 208.237823 223.383453 L 250.638168 264.817017 L 279.597473 235.183746 L 237.197128 193.749878 L 208.237823 223.383453 Z M 250.607773 264.789429 L 292.842407 306.223022 L 321.859711 276.644958 L 279.625092 235.211365 L 250.607773 264.789429 Z M 250.638168 235.183746 L 208.237823 276.61731 L 237.197128 306.25061 L 279.597473 264.817017 L 250.638168 235.183746 Z M 279.625092 264.789429 L 321.859711 223.355865 L 292.842407 193.778351 L 250.607773 235.211365 L 279.625092 264.789429 Z"/>
    </g>
</svg>
