<?xml version="1.0" encoding="UTF-8"?>
<!-- Generated by Pixelmator Pro 3.3.2 -->
<svg width="500" height="500" viewBox="0 0 500 500" xmlns="http://www.w3.org/2000/svg" xmlns:xlink="http://www.w3.org/1999/xlink">
    <path id="rotate-svgrepo-com" fill="#ff6900" stroke="none" d="M 388.400238 206.064728 C 391.253906 216.03241 401.647156 221.799744 411.61734 218.946106 C 421.585022 216.092499 427.352356 205.699249 424.498749 195.731598 L 388.400238 206.064728 Z M 363.896606 127.054199 L 377.416321 114.028625 L 377.401276 114.01358 L 363.896606 127.054199 Z M 276.81076 79.118164 L 280.603088 60.731537 L 280.568024 60.724243 L 276.81076 79.118164 Z M 178.659836 89.13089 L 171.264694 71.874969 L 171.246185 71.882965 L 178.659836 89.13089 Z M 102.412811 153.612976 L 86.634987 143.438507 L 86.634735 143.438782 L 102.412811 153.612976 Z M 123.539696 374.869568 L 137.115234 361.903046 L 137.106979 361.893066 L 123.539696 374.869568 Z M 338.038666 396.672302 L 348.727295 412.106934 L 348.729797 412.104462 L 338.038666 396.672302 Z M 418.055511 324.976074 C 421.895416 315.343811 417.201935 304.422424 407.569702 300.58252 C 397.939941 296.742645 387.018555 301.438599 383.17865 311.068359 L 418.055511 324.976074 Z M 388.280151 196.176178 C 385.671783 206.212433 391.691956 216.46048 401.727234 219.068787 C 411.762512 221.677094 422.013031 215.654449 424.618866 205.619171 L 388.280151 196.176178 Z M 442.39151 137.233368 C 444.999817 127.19812 438.979645 116.948792 428.944366 114.341003 C 418.909149 111.732941 408.661072 117.753845 406.052734 127.789124 L 442.39151 137.233368 Z M 401.449371 218.993713 C 411.442139 221.75473 421.782745 215.892242 424.546265 205.899506 C 427.307312 195.904572 421.444824 185.564117 411.449646 182.802643 L 401.449371 218.993713 Z M 345.140228 164.479279 C 335.147522 161.717529 324.806854 167.580505 322.043335 177.574463 C 319.282318 187.568451 325.144775 197.909119 335.140015 200.670593 L 345.140228 164.479279 Z M 424.498749 195.731598 C 415.717529 165.058289 399.552002 137.005096 377.416321 114.028625 L 350.37439 140.080017 C 368.252136 158.636383 381.308777 181.29248 388.400238 206.064728 L 424.498749 195.731598 Z M 377.401276 114.01358 C 351.235504 86.913818 317.497528 68.343201 280.603088 60.731537 L 273.015961 97.504852 C 302.505981 103.58905 329.472778 118.433197 350.389374 140.094788 L 377.401276 114.01358 Z M 280.568024 60.724243 C 243.848801 53.22171 205.712799 57.112152 171.264694 71.874969 L 186.054779 106.387115 C 213.472656 94.636932 243.826279 91.540466 273.050995 97.512085 L 280.568024 60.724243 Z M 171.246185 71.882965 C 136.556274 86.793427 107.098526 111.705902 86.634987 143.438507 L 118.190399 163.787689 C 134.608047 138.328766 158.242126 118.341583 186.073303 106.37912 L 171.246185 71.882965 Z M 86.634735 143.438782 C 36.943993 220.498108 46.596024 321.581757 109.972191 387.846069 L 137.106979 361.893066 C 85.737091 308.18219 77.913383 226.247925 118.190651 163.787201 L 86.634735 143.438782 Z M 109.963928 387.83609 C 172.744308 453.562225 274.00473 463.855316 348.727295 412.106934 L 327.350098 381.23764 C 267.814331 422.467651 187.135406 414.267181 137.115234 361.903046 L 109.963928 387.83609 Z M 348.729797 412.104462 C 379.899475 390.504456 404.012634 360.198364 418.055511 324.976074 L 383.17865 311.068359 C 371.86676 339.439484 352.447052 363.84552 327.345062 381.242645 L 348.729797 412.104462 Z M 424.618866 205.619171 L 442.39151 137.233368 L 406.052734 127.789124 L 388.280151 196.176178 L 424.618866 205.619171 Z M 411.449646 182.802643 L 345.140228 164.479279 L 335.140015 200.670593 L 401.449371 218.993713 L 411.449646 182.802643 Z"/>
</svg>
