<?xml version="1.0" encoding="UTF-8"?>
<!-- Generated by Pixelmator Pro 3.3.2 -->
<svg width="500" height="500" viewBox="0 0 500 500" xmlns="http://www.w3.org/2000/svg" xmlns:xlink="http://www.w3.org/1999/xlink">
    <path id="share-2-svgrepo-com-1" fill="#ff6900" stroke="none" d="M 250 92.741943 C 260.421814 92.741943 268.870972 84.292999 268.870972 73.870972 C 268.870972 63.448914 260.421814 55 250 55 L 250 92.741943 Z M 445 250 C 445 239.578186 436.550842 231.129028 426.129028 231.129028 C 415.707245 231.129028 407.258057 239.578186 407.258057 250 L 445 250 Z M 426.129028 92.741943 C 436.550842 92.741943 445 84.292999 445 73.870972 C 445 63.448914 436.550842 55 426.129028 55 L 426.129028 92.741943 Z M 323.269684 55 C 312.84787 55 304.398712 63.448914 304.398712 73.870972 C 304.398712 84.292999 312.84787 92.741943 323.269684 92.741943 L 323.269684 55 Z M 445 73.870972 C 445 63.448914 436.550842 55 426.129028 55 C 415.707245 55 407.258057 63.448914 407.258057 73.870972 L 445 73.870972 Z M 407.258057 178.063873 C 407.258057 188.485657 415.707245 196.934845 426.129028 196.934845 C 436.550842 196.934845 445 188.485657 445 178.063873 L 407.258057 178.063873 Z M 439.472076 87.214783 C 446.841797 79.845276 446.841797 67.896667 439.472076 60.527161 C 432.102325 53.157715 420.155731 53.157715 412.786011 60.527161 L 439.472076 87.214783 Z M 236.656967 236.656952 C 229.287216 244.026703 229.287216 255.973297 236.656967 263.343018 C 244.026703 270.712769 255.973297 270.712769 263.343048 263.343018 L 236.656967 236.656952 Z M 250 55 L 174.516129 55 L 174.516129 92.741943 L 250 92.741943 L 250 55 Z M 174.516129 55 C 108.509254 55 55 108.509247 55 174.516144 L 92.741936 174.516144 C 92.741936 129.353394 129.353378 92.741943 174.516129 92.741943 L 174.516129 55 Z M 55 174.516144 L 55 325.483887 L 92.741936 325.483887 L 92.741936 174.516144 L 55 174.516144 Z M 55 325.483887 C 55 391.492004 108.509254 445 174.516129 445 L 174.516129 407.258057 C 129.353378 407.258057 92.741936 370.645874 92.741936 325.483887 L 55 325.483887 Z M 174.516129 445 L 325.483856 445 L 325.483856 407.258057 L 174.516129 407.258057 L 174.516129 445 Z M 325.483856 445 C 391.492004 445 445 391.492004 445 325.483887 L 407.258057 325.483887 C 407.258057 370.645874 370.645905 407.258057 325.483856 407.258057 L 325.483856 445 Z M 445 325.483887 L 445 250 L 407.258057 250 L 407.258057 325.483887 L 445 325.483887 Z M 426.129028 55 L 323.269684 55 L 323.269684 92.741943 L 426.129028 92.741943 L 426.129028 55 Z M 407.258057 73.870972 L 407.258057 178.063873 L 445 178.063873 L 445 73.870972 L 407.258057 73.870972 Z M 412.786011 60.527161 L 236.656967 236.656952 L 263.343048 263.343018 L 439.472076 87.214783 L 412.786011 60.527161 Z"/>
</svg>
