<?xml version="1.0" encoding="UTF-8"?>
<!-- Generated by Pixelmator Pro 3.3.2 -->
<svg width="500" height="500" viewBox="0 0 500 500" xmlns="http://www.w3.org/2000/svg" xmlns:xlink="http://www.w3.org/1999/xlink">
    <path id="Circular-Outline" fill="none" stroke="#ff6900" stroke-width="30" stroke-linecap="round" stroke-linejoin="round" d="M 381 267 C 371.611176 267 364 259.388824 364 250 C 364 240.611176 371.611176 233 381 233 C 390.388824 233 398 240.611176 398 250 C 398 259.388824 390.388824 267 381 267 Z M 381 264.364319 C 388.933197 264.364319 395.364349 257.933197 395.364349 250 C 395.364349 242.066803 388.933197 235.635651 381 235.635651 C 373.066803 235.635651 366.635651 242.066803 366.635651 250 C 366.635651 257.933197 373.066803 264.364319 381 264.364319 Z"/>
    <path id="Circular-Outline-copy" fill="none" stroke="#ff6900" stroke-width="30" stroke-linecap="round" stroke-linejoin="round" d="M 250 267 C 240.611176 267 233 259.388824 233 250 C 233 240.611176 240.611176 233 250 233 C 259.388824 233 267 240.611176 267 250 C 267 259.388824 259.388824 267 250 267 Z M 250 264.364319 C 257.933197 264.364319 264.364349 257.933197 264.364349 250 C 264.364349 242.066803 257.933197 235.635651 250 235.635651 C 242.066803 235.635651 235.635666 242.066803 235.635666 250 C 235.635666 257.933197 242.066803 264.364319 250 264.364319 Z"/>
    <path id="Circular-Outline-copy-2" fill="none" stroke="#ff6900" stroke-width="30" stroke-linecap="round" stroke-linejoin="round" d="M 119 267 C 109.611176 267 102 259.388824 102 250 C 102 240.611176 109.611176 233 119 233 C 128.388824 233 136 240.611176 136 250 C 136 259.388824 128.388824 267 119 267 Z M 119 264.364319 C 126.933197 264.364319 133.364334 257.933197 133.364334 250 C 133.364334 242.066803 126.933197 235.635651 119 235.635651 C 111.066803 235.635651 104.635658 242.066803 104.635658 250 C 104.635658 257.933197 111.066803 264.364319 119 264.364319 Z"/>
</svg>
