<?xml version="1.0" encoding="UTF-8"?>
<!-- Generated by Pixelmator Pro 3.3.2 -->
<svg width="500" height="500" viewBox="0 0 500 500" xmlns="http://www.w3.org/2000/svg" xmlns:xlink="http://www.w3.org/1999/xlink">
    <path id="copy-svgrepo-com" fill="#ff6900" stroke="none" d="M 141.517731 162.483948 C 141.517731 172.959473 150.009979 181.451691 160.485443 181.451691 C 170.960953 181.451691 179.453171 172.959473 179.453171 162.483948 L 141.517731 162.483948 Z M 160.485443 156.591339 L 179.45343 156.591339 L 179.452927 156.48584 L 160.485443 156.591339 Z M 184.229752 98.355927 L 197.716568 111.693756 L 184.229752 98.355927 Z M 242.199646 73.967957 L 242.199646 55 L 242.09343 55.000488 L 242.199646 73.967957 Z M 344.319275 73.967957 L 344.425476 55.000244 L 344.319275 55.000244 L 344.319275 73.967957 Z M 402.289673 98.355927 L 388.802399 111.693756 L 388.802399 111.693756 L 402.289673 98.355927 Z M 426.032227 156.591339 L 407.064484 156.48584 L 407.064484 156.591339 L 426.032227 156.591339 Z M 426.032227 256.892578 L 407.064484 256.892578 L 407.067017 256.99884 L 426.032227 256.892578 Z M 402.289673 315.12854 L 388.802399 301.790466 L 402.289673 315.12854 Z M 344.319275 339.515991 L 344.319275 358.483704 L 344.425476 358.483704 L 344.319275 339.515991 Z M 337.516205 320.548279 C 327.040985 320.548279 318.548492 329.040741 318.548492 339.515991 C 318.548492 349.991211 327.040985 358.483704 337.516205 358.483704 L 337.516205 320.548279 Z M 160.485443 181.451691 C 170.960953 181.451691 179.453171 172.959473 179.453171 162.483948 C 179.453171 152.008453 170.960953 143.516235 160.485443 143.516235 L 160.485443 181.451691 Z M 153.682358 162.483948 L 153.682358 143.515991 L 153.577667 143.516479 L 153.682358 162.483948 Z M 95.713745 186.871887 L 109.200043 200.209717 L 95.713745 186.871887 Z M 71.96946 245.10733 L 90.937424 245.10733 L 90.93692 245.001114 L 71.96946 245.10733 Z M 71.96946 345.433899 L 90.937172 345.532532 L 90.937172 345.433899 L 71.96946 345.433899 Z M 153.682358 428.031982 L 153.577667 446.999695 L 153.682358 446.999695 L 153.682358 428.031982 Z M 255.803284 428.031982 L 255.803284 446.999695 L 255.909515 446.999695 L 255.803284 428.031982 Z M 313.773682 403.644562 L 300.286377 390.306488 L 313.773682 403.644562 Z M 337.516205 345.4086 L 318.548492 345.4086 L 318.551025 345.514832 L 337.516205 345.4086 Z M 356.483917 339.515991 C 356.483917 329.040741 347.993988 320.548279 337.516205 320.548279 C 327.040985 320.548279 318.548492 329.040741 318.548492 339.515991 L 356.483917 339.515991 Z M 160.485443 143.516235 C 150.009979 143.516235 141.517731 152.008453 141.517731 162.483948 C 141.517731 172.959473 150.009979 181.451691 160.485443 181.451691 L 160.485443 143.516235 Z M 255.805817 162.483948 L 255.909515 143.516235 L 255.805817 143.516235 L 255.805817 162.483948 Z M 313.773682 186.871887 L 327.258484 173.534302 L 327.258484 173.534302 L 313.773682 186.871887 Z M 337.518707 245.10733 L 318.551025 245.001114 L 318.551025 245.10733 L 337.518707 245.10733 Z M 318.551025 339.515991 C 318.551025 349.991211 327.040985 358.483704 337.518707 358.483704 C 347.993988 358.483704 356.48642 349.991211 356.48642 339.515991 L 318.551025 339.515991 Z M 179.453171 162.483948 L 179.453171 156.591339 L 141.517731 156.591339 L 141.517731 162.483948 L 179.453171 162.483948 Z M 179.452927 156.48584 C 179.359848 139.723969 185.928741 123.611755 197.716568 111.693756 L 170.743439 85.01828 C 151.881714 104.090179 141.369049 129.873657 141.518005 156.696777 L 179.452927 156.48584 Z M 197.716568 111.693756 C 209.501831 99.775696 225.540939 93.027985 242.303329 92.935425 L 242.09343 55.000488 C 215.270538 55.148712 189.605957 65.946381 170.743439 85.01828 L 197.716568 111.693756 Z M 242.199646 92.935669 L 344.319275 92.935669 L 344.319275 55.000244 L 242.199646 55.000244 L 242.199646 92.935669 Z M 344.215607 92.935425 C 360.977997 93.027985 377.01709 99.775696 388.802399 111.693756 L 415.774475 85.01828 C 396.912994 65.946381 371.248383 55.148712 344.425476 55.000488 L 344.215607 92.935425 Z M 388.802399 111.693756 C 400.590179 123.611755 407.158081 139.723969 407.067017 156.48584 L 444.999939 156.696777 C 445.149139 129.873657 434.635986 104.090179 415.774475 85.01828 L 388.802399 111.693756 Z M 407.064484 156.591339 L 407.064484 256.892578 L 444.999939 256.892578 L 444.999939 156.591339 L 407.064484 156.591339 Z M 407.067017 256.99884 C 407.158081 273.758728 400.590179 289.871155 388.802399 301.790466 L 415.774475 328.466644 C 434.635986 309.3927 445.149139 283.609253 444.999939 256.786377 L 407.067017 256.99884 Z M 388.802399 301.790466 C 377.01709 313.707214 360.977997 320.454681 344.215607 320.548279 L 344.425476 358.483704 C 371.248383 358.334473 396.912994 347.538025 415.774475 328.466644 L 388.802399 301.790466 Z M 344.319275 320.548279 L 337.516205 320.548279 L 337.516205 358.483704 L 344.319275 358.483704 L 344.319275 320.548279 Z M 160.485443 143.516235 L 153.682358 143.516235 L 153.682358 181.451691 L 160.485443 181.451691 L 160.485443 143.516235 Z M 153.577667 143.516479 C 126.754539 143.664734 101.088951 154.462372 82.227455 173.534302 L 109.200043 200.209717 C 120.986839 188.291687 137.025177 181.543976 153.787079 181.451447 L 153.577667 143.516479 Z M 82.227455 173.534302 C 63.365704 192.606201 52.853039 218.390656 53.001995 245.213562 L 90.93692 245.001114 C 90.843842 228.241241 97.413261 212.128815 109.200043 200.209717 L 82.227455 173.534302 Z M 53.001743 245.10733 L 53.001743 345.433899 L 90.937172 345.433899 L 90.937172 245.10733 L 53.001743 245.10733 Z M 53.001995 345.335266 C 52.708881 401.178741 97.733673 446.691162 153.577667 446.999695 L 153.787323 409.06427 C 118.890022 408.87204 90.753822 380.430603 90.93692 345.532532 L 53.001995 345.335266 Z M 153.682358 446.999695 L 255.803284 446.999695 L 255.803284 409.06427 L 153.682358 409.06427 L 153.682358 446.999695 Z M 255.909515 446.999695 C 282.732391 446.850494 308.396973 436.054047 327.258484 416.982666 L 300.286377 390.306488 C 288.501099 402.223236 272.462006 408.970673 255.6996 409.06427 L 255.909515 446.999695 Z M 327.258484 416.982666 C 346.119965 397.908752 356.633118 372.125275 356.483917 345.302368 L 318.551025 345.514832 C 318.642059 362.274719 312.074188 378.387146 300.286377 390.306488 L 327.258484 416.982666 Z M 356.483917 345.4086 L 356.483917 339.515991 L 318.548492 339.515991 L 318.548492 345.4086 L 356.483917 345.4086 Z M 160.485443 181.451691 L 255.805817 181.451691 L 255.805817 143.516235 L 160.485443 143.516235 L 160.485443 181.451691 Z M 255.6996 181.451447 C 272.462006 181.543976 288.501099 188.291687 300.286377 200.209717 L 327.258484 173.534302 C 308.396973 154.462372 282.732391 143.664734 255.909515 143.516479 L 255.6996 181.451447 Z M 300.286377 200.209717 C 312.074188 212.128815 318.642059 228.241241 318.551025 245.001114 L 356.483917 245.213562 C 356.633118 218.390656 346.119965 192.606201 327.258484 173.534302 L 300.286377 200.209717 Z M 318.551025 245.10733 L 318.551025 339.515991 L 356.48642 339.515991 L 356.48642 245.10733 L 318.551025 245.10733 Z"/>
</svg>
