<?xml version="1.0" encoding="UTF-8"?>
<!-- Generated by Pixelmator Pro 3.3.2 -->
<svg width="500" height="500" viewBox="0 0 500 500" xmlns="http://www.w3.org/2000/svg" xmlns:xlink="http://www.w3.org/1999/xlink">
    <path id="exchange-svgrepo-com" fill="#f2f2f2" stroke="none" visibility="hidden" d="M 119.469269 268.174866 C 128.955139 277.661072 144.335129 277.661072 153.820969 268.174866 C 163.306854 258.68869 163.306854 243.311279 153.820969 233.825104 L 119.469269 268.174866 Z M 40.466114 120.469238 C 30.980238 110.983429 15.600251 110.983429 6.11439 120.469238 C -3.371455 129.955078 -3.371455 145.335114 6.11439 154.820953 L 40.466114 120.469238 Z M 23.290253 113.354767 C 9.875181 113.354767 -1.000079 124.230011 -1.000079 137.645081 C -1.000079 151.060181 9.875181 161.935455 23.290253 161.935455 L 23.290253 113.354767 Z M 476.709747 161.935455 C 490.124512 161.935455 501.000061 151.060181 501.000061 137.645081 C 501.000061 124.230011 490.124512 113.354767 476.709747 113.354767 L 476.709747 161.935455 Z M 6.11439 120.469238 C -3.371455 129.955078 -3.371455 145.335114 6.11439 154.820953 C 15.600251 164.306854 30.980238 164.306854 40.466114 154.820953 L 6.11439 120.469238 Z M 153.820969 41.466125 C 163.306854 31.980255 163.306854 16.60025 153.820969 7.11441 C 144.335129 -2.37146 128.955139 -2.37146 119.469269 7.11441 L 153.820969 41.466125 Z M 380.529755 233.825104 C 371.043579 224.338928 355.666168 224.338928 346.179993 233.825104 C 336.693787 243.311279 336.693787 258.68869 346.179993 268.174866 L 380.529755 233.825104 Z M 459.534882 381.529724 C 469.021027 391.01593 484.398438 391.01593 493.884644 381.529724 C 503.370789 372.043579 503.370789 356.666138 493.884644 347.179993 L 459.534882 381.529724 Z M 476.709747 388.645203 C 490.124512 388.645203 501.000061 377.769592 501.000061 364.354858 C 501.000061 350.940125 490.124512 340.064514 476.709747 340.064514 L 476.709747 388.645203 Z M 23.290253 340.064514 C 9.875181 340.064514 -1.000079 350.940125 -1.000079 364.354858 C -1.000079 377.769592 9.875181 388.645203 23.290253 388.645203 L 23.290253 340.064514 Z M 493.884644 381.529724 C 503.370789 372.043579 503.370789 356.666138 493.884644 347.179993 C 484.398438 337.693787 469.021027 337.693787 459.534882 347.179993 L 493.884644 381.529724 Z M 346.179993 460.534851 C 336.693787 470.021057 336.693787 485.398438 346.179993 494.884644 C 355.666168 504.370819 371.043579 504.370819 380.529755 494.884644 L 346.179993 460.534851 Z M 153.820969 233.825104 L 40.466114 120.469238 L 6.11439 154.820953 L 119.469269 268.174866 L 153.820969 233.825104 Z M 23.290253 161.935455 L 476.709747 161.935455 L 476.709747 113.354767 L 23.290253 113.354767 L 23.290253 161.935455 Z M 40.466114 154.820953 L 153.820969 41.466125 L 119.469269 7.11441 L 6.11439 120.469238 L 40.466114 154.820953 Z M 346.179993 268.174866 L 459.534882 381.529724 L 493.884644 347.179993 L 380.529755 233.825104 L 346.179993 268.174866 Z M 476.709747 340.064514 L 23.290253 340.064514 L 23.290253 388.645203 L 476.709747 388.645203 L 476.709747 340.064514 Z M 459.534882 347.179993 L 346.179993 460.534851 L 380.529755 494.884644 L 493.884644 381.529724 L 459.534882 347.179993 Z"/>
    <g id="coin-circle-svgrepo-com">
        <path id="Path" fill="none" stroke="#f2f2f2" stroke-width="47.692307" stroke-linecap="round" stroke-linejoin="round" d="M 467 250 C 467 372.918976 369.844452 472.564087 250 472.564087 C 130.154297 472.564087 33 372.918976 33 250 C 33 127.081329 130.154297 27.435913 250 27.435913 C 307.55191 27.435913 362.747803 50.884613 403.442017 92.623352 C 444.136322 134.362396 467 190.972809 467 250 Z"/>
        <path id="path1" fill="#f2f2f2" stroke="none" d="M 250.001709 324.717163 C 239.031174 324.717163 230.137161 333.611206 230.137161 344.581726 C 230.137161 355.552246 239.031174 364.446259 250.001709 364.446259 L 250.001709 324.717163 Z M 211.265839 223.513916 L 225.284912 209.441895 C 224.52211 208.681732 223.698395 207.985168 222.824356 207.357452 L 211.265839 223.513916 Z M 198.353882 197.027893 L 218.207855 197.695313 C 218.21579 197.472839 218.21843 197.250366 218.21843 197.027893 L 198.353882 197.027893 Z M 250.001709 175.282806 C 260.972229 175.282806 269.866241 166.389069 269.866241 155.418274 C 269.866241 144.447479 260.972229 135.553711 250.001709 135.553711 L 250.001709 175.282806 Z M 249.170044 364.454224 C 260.129974 364.91507 269.389496 356.402435 269.847717 345.43988 C 270.308563 334.47995 261.795929 325.220459 250.833359 324.762207 L 249.170044 364.454224 Z M 218.048904 284.031921 C 219.481812 273.156769 211.824707 263.176819 200.947403 261.743896 C 190.070618 260.311035 180.091736 267.96814 178.659363 278.845978 L 218.048904 284.031921 Z M 269.866241 344.581726 C 269.866241 333.611206 260.972229 324.717163 250.001709 324.717163 C 239.031174 324.717163 230.137161 333.611206 230.137161 344.581726 L 269.866241 344.581726 Z M 230.137161 382.430328 C 230.137161 393.400848 239.031174 402.294861 250.001709 402.294861 C 260.972229 402.294861 269.866241 393.400848 269.866241 382.430328 L 230.137161 382.430328 Z M 248.854858 135.586853 C 237.902878 136.219849 229.535934 145.61203 230.1716 156.564545 C 230.804611 167.517365 240.196548 175.882721 251.148575 175.249695 L 248.854858 135.586853 Z M 289.179901 171.76123 L 274.366241 184.998169 L 274.366241 184.998169 L 289.179901 171.76123 Z M 281.978333 210.443054 C 280.450104 221.307648 288.019775 231.35379 298.881744 232.88205 C 309.746338 234.410309 319.79248 226.840576 321.32074 215.978638 L 281.978333 210.443054 Z M 230.137161 155.418274 C 230.137161 166.389069 239.031174 175.282806 250.001709 175.282806 C 260.972229 175.282806 269.866241 166.389069 269.866241 155.418274 L 230.137161 155.418274 Z M 269.866241 117.569672 C 269.866241 106.598907 260.972229 97.705109 250.001709 97.705109 C 239.031174 97.705109 230.137161 106.598907 230.137161 117.569672 L 269.866241 117.569672 Z M 250.001709 364.446259 C 261.078186 364.446259 277.727325 361.871857 292.342346 353.290344 C 307.971741 344.112915 321.514069 327.651825 321.514069 302.468872 L 281.784973 302.468872 C 281.784973 310.976227 278.114014 315.571564 272.226166 319.028015 C 265.323883 323.080322 256.149109 324.717163 250.001709 324.717163 L 250.001709 364.446259 Z M 321.514069 302.468872 C 321.514069 287.030151 316.796906 274.391052 308.15451 264.151489 C 300.134552 254.650955 289.614258 248.32608 280.283203 243.381134 C 260.103485 232.691376 241.889008 225.982422 225.284912 209.441895 L 197.245956 237.585968 C 219.37854 259.63562 246.357224 270.367798 261.684723 278.488403 C 270.107269 282.951294 274.9198 286.373291 277.796204 289.779419 C 280.047516 292.446594 281.784973 295.871216 281.784973 302.468872 L 321.514069 302.468872 Z M 222.824356 207.357452 C 219.934738 205.291534 218.072769 201.692078 218.207855 197.695313 L 178.500732 196.359894 C 177.92836 213.369781 185.788376 229.71167 199.708664 239.670441 L 222.824356 207.357452 Z M 218.21843 197.027893 C 218.21843 190.014648 219.71225 186.167236 220.986221 184.069031 C 222.239014 182.001251 224.029495 180.392487 226.678085 179.054413 C 232.83078 175.944977 241.449356 175.282806 250.001709 175.282806 L 250.001709 135.553711 C 241.32753 135.553711 224.124817 135.831818 208.760269 143.594879 C 200.649704 147.693054 192.756317 154.003662 187.018112 163.462341 C 181.298447 172.890594 178.489334 184.176575 178.489334 197.027893 L 218.21843 197.027893 Z M 250.833359 324.762207 C 241.31163 324.362274 232.253387 319.862305 225.949692 312.152191 L 195.193039 337.30072 C 208.548386 353.634674 228.121582 363.572266 249.170044 364.454224 L 250.833359 324.762207 Z M 225.949692 312.152191 C 219.630142 304.420898 216.708725 294.207886 218.048904 284.031921 L 178.659363 278.845978 C 175.904007 299.767334 181.854401 320.985291 195.193039 337.30072 L 225.949692 312.152191 Z M 230.137161 344.581726 L 230.137161 382.430328 L 269.866241 382.430328 L 269.866241 344.581726 L 230.137161 344.581726 Z M 251.148575 175.249695 C 259.790955 174.749939 268.330078 178.242096 274.366241 184.998169 L 303.990906 158.524536 C 290.011566 142.883179 269.786804 134.376678 248.854858 135.586853 L 251.148575 175.249695 Z M 274.366241 184.998169 C 280.428894 191.782318 283.289398 201.125275 281.978333 210.443054 L 321.32074 215.978638 C 324.239502 195.225769 317.943756 174.137543 303.990906 158.524536 L 274.366241 184.998169 Z M 269.866241 155.418274 L 269.866241 117.569672 L 230.137161 117.569672 L 230.137161 155.418274 L 269.866241 155.418274 Z"/>
    </g>
</svg>
