<?xml version="1.0" encoding="UTF-8"?>
<!-- Generated by Pixelmator Pro 3.3.2 -->
<svg width="500" height="500" viewBox="0 0 500 500" xmlns="http://www.w3.org/2000/svg" xmlns:xlink="http://www.w3.org/1999/xlink">
    <path id="wallet-svgrepo-com" fill="none" stroke="#f2f2f2" stroke-width="34" stroke-linecap="round" stroke-linejoin="round" d="M 404.5 148.000031 L 404.5 127.399994 C 404.5 98.557434 404.5 84.135864 398.886505 73.119537 C 393.950195 63.429047 386.070709 55.550598 376.381012 50.613251 C 365.365112 45 350.942566 45 322.100006 45 L 100.650002 45 C 71.807182 45 57.385895 45 46.36953 50.613251 C 36.679035 55.550598 28.800568 63.429047 23.863262 73.119537 C 18.250019 84.135864 18.250019 98.557434 18.250019 127.399994 L 18.250019 148.000031 M 481.749969 251 L 430.249969 251 C 401.806519 251 378.75 274.056549 378.75 302.5 C 378.75 330.94342 401.806519 354 430.249969 354 L 481.749969 354 M 18.250019 148.000031 L 18.250019 374.599976 C 18.250019 403.442535 18.250019 417.865112 23.863262 428.881012 C 28.800568 438.570709 36.679035 446.450195 46.36953 451.386475 C 57.385895 457 71.807182 457 100.650002 457 L 399.349976 457 C 428.192535 457 442.615112 457 453.631012 451.386475 C 463.320679 446.450195 471.200195 438.570709 476.136475 428.881012 C 481.749969 417.865112 481.749969 403.442535 481.749969 374.599976 L 481.749969 230.399994 C 481.749969 201.557434 481.749969 187.135895 476.136475 176.119507 C 471.200195 166.429016 463.320679 158.550568 453.631012 153.613251 C 442.615112 148.000031 428.192535 148.000031 399.349976 148.000031 L 18.250019 148.000031 Z"/>
    <path id="path1" fill="#ffffff" fill-rule="evenodd" stroke="none" d="M 266.213562 278.46759 L 266.213562 216.323883 L 232.799713 216.323883 L 232.799713 278.46759 L 170.656006 278.46759 L 170.656006 311.88147 L 232.799713 311.88147 L 232.799713 374.025177 L 266.213562 374.025177 L 266.213562 311.88147 L 328.357269 311.88147 L 328.357269 278.46759 Z"/>
</svg>
