<?xml version="1.0" encoding="UTF-8"?>
<!-- Generated by Pixelmator Pro 3.3.2 -->
<svg width="500" height="500" viewBox="0 0 500 500" xmlns="http://www.w3.org/2000/svg" xmlns:xlink="http://www.w3.org/1999/xlink">
    <g id="circle-cross-svgrepo-com">
        <path id="Path" fill="none" stroke="#ff3049" stroke-width="48" stroke-linecap="round" stroke-linejoin="round" d="M 25 250.006409 C 25.007675 143.141754 100.502075 51.16449 205.313599 30.323181 C 310.126404 9.482239 415.064026 65.581787 455.953613 164.313934 C 496.843201 263.046387 462.296021 376.911987 373.438416 436.278381 C 284.580811 495.644775 166.160645 483.974426 90.600006 408.406372 C 48.592957 366.393585 24.995834 309.417603 25 250.006409 Z"/>
        <path id="path1" fill="#ff3049" stroke="none" d="M 148.032654 316.998413 C 138.658234 326.371185 138.655365 341.564789 148.026245 350.940796 C 157.397125 360.313599 172.593597 360.316803 181.9664 350.947205 L 148.032654 316.998413 Z M 265.9664 266.979187 C 275.342407 257.606415 275.345612 242.412811 265.972809 233.036804 C 256.60321 223.664001 241.406403 223.660797 232.0336 233.030396 L 265.9664 266.979187 Z M 232.023987 233.040009 C 222.654388 242.415985 222.660797 257.612793 232.036804 266.982391 C 241.412811 276.35199 256.609589 276.345612 265.976013 266.969604 L 232.023987 233.040009 Z M 349.944 182.936646 C 359.313599 173.560638 359.30719 158.364807 349.931213 148.995514 C 340.555206 139.626556 325.358398 139.632324 315.992004 149.008636 L 349.944 182.936646 Z M 265.9664 233.030396 C 256.593597 223.660797 241.39679 223.664001 232.027191 233.036804 C 222.654388 242.412811 222.657593 257.606415 232.0336 266.979187 L 265.9664 233.030396 Z M 316.0336 350.947205 C 325.406403 360.316803 340.60321 360.313599 349.972809 350.940796 C 359.345612 341.564789 359.342407 326.371185 349.9664 316.998413 L 316.0336 350.947205 Z M 232.027191 266.972809 C 241.39679 276.345612 256.593597 276.348785 265.9664 266.979187 C 275.342407 257.606415 275.345612 242.412811 265.972809 233.036804 L 232.027191 266.972809 Z M 181.972809 149.005432 C 172.60321 139.631042 157.407043 139.628174 148.032654 148.998718 C 138.658234 158.369598 138.655365 173.565765 148.026245 182.93985 L 181.972809 149.005432 Z M 181.9664 350.947205 L 265.9664 266.979187 L 232.0336 233.030396 L 148.032654 316.998413 L 181.9664 350.947205 Z M 265.976013 266.969604 L 349.944 182.936646 L 315.992004 149.008636 L 232.023987 233.040009 L 265.976013 266.969604 Z M 232.0336 266.979187 L 316.0336 350.947205 L 349.9664 316.998413 L 265.9664 233.030396 L 232.0336 266.979187 Z M 265.972809 233.036804 L 181.972809 149.005432 L 148.026245 182.93985 L 232.027191 266.972809 L 265.972809 233.036804 Z"/>
    </g>
</svg>
