<?xml version="1.0" encoding="UTF-8"?>
<!-- Generated by Pixelmator Pro 3.3.2 -->
<svg width="500" height="500" viewBox="0 0 500 500" xmlns="http://www.w3.org/2000/svg" xmlns:xlink="http://www.w3.org/1999/xlink">
    <path id="percentage-square-svgrepo-com" fill="#f2f2f2" stroke="none" d="M 152.220383 184.234741 C 152.220383 165.608917 167.396973 150.202362 186.252747 150.202362 C 204.878586 150.202362 220.285141 165.378937 220.285141 184.234741 C 220.285141 202.860565 205.108536 218.26712 186.252747 218.26712 C 167.396973 218.03717 152.220383 202.860565 152.220383 184.234741 Z M 176.824875 342.439301 C 172.455841 342.439301 168.086807 340.829651 164.637604 337.380432 C 157.969086 330.711914 157.969086 319.904358 164.637604 313.005859 L 315.253876 162.389618 C 321.922363 155.7211 332.959869 155.7211 339.628387 162.389618 C 346.296906 169.058105 346.296906 180.095673 339.628387 186.764191 L 189.012146 337.380432 C 185.562897 340.829651 181.193893 342.439301 176.824875 342.439301 Z M 336.639069 349.797668 C 318.013214 349.797668 302.606689 334.621063 302.606689 315.765259 C 302.606689 297.139465 317.783264 281.73291 336.639069 281.73291 C 355.264893 281.73291 370.671448 296.909515 370.671448 315.765259 C 370.671448 334.621063 355.494843 349.797668 336.639069 349.797668 Z"/>
    <path id="Path" fill="none" stroke="#f2f2f2" stroke-width="33.333332" d="M 468.898773 222.13559 L 437.908661 186.426636 C 432.169708 179.646393 427.34906 166.990112 427.34906 157.949768 L 427.34906 119.528046 C 427.34906 95.571106 407.377625 75.908295 383.044647 75.908295 L 344.019989 75.908295 C 334.837738 75.908295 321.753021 71.162354 314.866333 65.511902 L 278.596375 35.000702 C 262.756989 21.666443 236.817093 21.666443 220.977692 35.000702 L 184.247726 65.511902 C 177.361023 71.162354 164.505875 75.908295 155.323593 75.908295 L 115.610306 75.908295 C 91.277313 75.908295 71.305893 95.571106 71.305893 119.528046 L 71.305893 157.949768 C 71.305893 166.764099 66.714767 179.420349 60.975849 186.200623 L 29.98571 222.13559 C 16.671431 237.956207 16.671431 263.269196 29.98571 278.637817 L 60.975849 314.573242 C 66.714767 321.127472 71.305893 334.009979 71.305893 342.82431 L 71.305893 381.471802 C 71.305893 405.428772 91.277313 425.091522 115.610306 425.091522 L 155.553162 425.091522 C 164.505875 425.091522 177.590591 429.837738 184.477295 435.487946 L 220.748154 465.999115 C 236.587555 479.333618 262.527435 479.333618 278.366852 465.999115 L 314.63678 435.487946 C 321.523468 429.837738 334.378662 425.091522 343.560944 425.091522 L 382.585541 425.091522 C 406.918549 425.091522 426.889923 405.428772 426.889923 381.471802 L 426.889923 343.050354 C 426.889923 334.009979 431.710663 321.353485 437.449554 314.573242 L 468.439667 278.863831 C 482.442627 263.495239 482.442627 237.956207 468.898773 222.13559 Z"/>
</svg>
