<?xml version="1.0" encoding="UTF-8"?>
<!-- Generated by Pixelmator Pro 3.3.2 -->
<svg width="500" height="500" viewBox="0 0 500 500" xmlns="http://www.w3.org/2000/svg" xmlns:xlink="http://www.w3.org/1999/xlink">
    <g id="battery-three-quarters-svgrepo-com">
        <path id="Path" fill="none" stroke="#f2f2f2" stroke-width="25" stroke-linecap="round" stroke-linejoin="round" d="M 72.757614 206.978943 C 72.757614 169.435333 102.432007 139 139.037079 139 L 293.688721 139 C 330.29541 139 359.968201 169.435333 359.968201 206.978943 L 359.968201 297.617554 C 359.968201 335.162292 330.29541 365.596497 293.688721 365.596497 L 139.037079 365.596497 C 102.432007 365.596497 72.757614 335.162292 72.757614 297.617554 L 72.757614 206.978943 Z"/>
        <path id="path1" fill="#ff6900" stroke="none" d="M 122.042114 297.617554 C 122.042114 307.003174 129.651001 314.612274 139.03685 314.612274 C 148.422714 314.612274 156.031586 307.003174 156.031586 297.617554 Z M 156.031586 206.978943 C 156.031586 197.593079 148.422714 189.984192 139.03685 189.984192 C 129.651001 189.984192 122.042114 197.593079 122.042114 206.978943 Z M 199.367935 297.617554 C 199.367935 307.003174 206.977051 314.612274 216.362671 314.612274 C 225.748291 314.612274 233.357407 307.003174 233.357407 297.617554 Z M 233.357407 206.978943 C 233.357407 197.593079 225.748291 189.984192 216.362671 189.984192 C 206.977051 189.984192 199.367935 197.593079 199.367935 206.978943 Z M 276.694 297.617554 C 276.694 307.003174 284.303101 314.612274 293.688721 314.612274 C 303.074341 314.612274 310.683472 307.003174 310.683472 297.617554 Z M 310.683472 206.978943 C 310.683472 197.593079 303.074341 189.984192 293.688721 189.984192 C 284.303101 189.984192 276.694 197.593079 276.694 206.978943 Z M 156.031586 297.617554 L 156.031586 206.978943 L 122.042114 206.978943 L 122.042114 297.617554 Z M 233.357407 297.617554 L 233.357407 206.978943 L 199.367935 206.978943 L 199.367935 297.617554 Z M 310.683472 297.617554 L 310.683472 206.978943 L 276.694 206.978943 L 276.694 297.617554 Z"/>
        <path id="Path-copy" fill="#f2f2f2" stroke="none" d="M 370.968201 189.984192 C 361.582581 189.984192 353.97345 197.593079 353.97345 206.978943 C 353.97345 216.364563 361.582581 223.973663 370.968201 223.973663 Z M 370.968201 280.622803 C 361.582581 280.622803 353.97345 288.231934 353.97345 297.617554 C 353.97345 307.003174 361.582581 314.612274 370.968201 314.612274 Z M 370.968201 223.973663 L 415.15448 223.973663 L 415.15448 189.984192 L 370.968201 189.984192 Z M 415.15448 223.973663 C 417.567749 223.973663 420.252899 226.10141 420.252899 229.63858 L 454.242371 229.63858 C 454.242371 208.145935 437.145691 189.984192 415.15448 189.984192 Z M 420.252899 229.63858 L 420.252899 274.957886 L 454.242371 274.957886 L 454.242371 229.63858 Z M 420.252899 274.957886 C 420.252899 278.495056 417.567749 280.622803 415.15448 280.622803 L 415.15448 314.612274 C 437.145691 314.612274 454.242371 296.450562 454.242371 274.957886 Z M 415.15448 280.622803 L 370.968201 280.622803 L 370.968201 314.612274 L 415.15448 314.612274 Z"/>
    </g>
</svg>
