<?xml version="1.0" encoding="UTF-8"?>
<!-- Generated by Pixelmator Pro 3.3.2 -->
<svg width="500" height="500" viewBox="0 0 500 500" xmlns="http://www.w3.org/2000/svg" xmlns:xlink="http://www.w3.org/1999/xlink">
    <path id="history-svgrepo-com" fill="#ff6900" stroke="none" d="M 424.223694 192.709473 C 427.831665 205.631897 441.230164 213.181305 454.149323 209.57663 C 467.071808 205.968689 474.624451 192.573425 471.016479 179.65036 L 424.223694 192.709473 Z M 393.938599 90.638489 L 411.644653 74.007996 L 411.625122 73.988251 L 393.938599 90.638489 Z M 284.081757 28.617249 L 289.108185 4.853271 L 289.062866 4.843536 L 284.081757 28.617249 Z M 160.266373 41.572052 L 150.492264 19.335114 L 150.467987 19.345825 L 160.266373 41.572052 Z M 64.081696 125.001099 L 43.5182 112.071869 L 43.517876 112.07251 L 64.081696 125.001099 Z M 90.733002 411.270203 L 108.508308 394.717194 L 108.49762 394.704224 L 90.733002 411.270203 Z M 361.318359 439.479279 L 375.384033 459.284027 L 375.390503 459.277527 L 361.318359 439.479279 Z M 462.903534 346.522003 C 467.764862 334.017395 461.569183 319.941956 449.064606 315.080627 C 436.559906 310.21936 422.484528 316.415009 417.62323 328.919647 L 462.903534 346.522003 Z M 424.074738 180.214203 C 420.77774 193.217957 428.65097 206.431854 441.654419 209.725616 C 454.657776 213.022614 467.871735 205.149323 471.165497 192.145935 L 424.074738 180.214203 Z M 493.587036 103.665161 C 496.880829 90.661133 489.010803 77.447815 476.007385 74.152802 C 463.003937 70.857727 449.79007 78.728394 446.493011 91.732788 L 493.587036 103.665161 Z M 440.996979 209.55072 C 453.903168 213.207214 467.330841 205.709595 470.990631 192.803375 C 474.647095 179.89682 467.149475 166.468506 454.243317 162.810394 L 440.996979 209.55072 Z M 370.593994 139.103058 C 357.687744 135.445282 344.260101 142.942871 340.603638 155.849762 C 336.943817 168.756317 344.441467 182.184967 357.347687 185.842743 L 370.593994 139.103058 Z M 241.712982 186.180237 C 241.712982 172.765167 230.837418 161.889954 217.422699 161.889954 C 204.004745 161.889954 193.131149 172.765167 193.131149 186.180237 L 241.712982 186.180237 Z M 217.422699 283.34137 L 193.131149 283.34137 C 193.131149 296.756073 204.004745 307.631653 217.422699 307.631653 L 217.422699 283.34137 Z M 312.154816 307.631653 C 325.569519 307.631653 336.445099 296.756073 336.445099 283.34137 C 336.445099 269.926666 325.569519 259.051086 312.154816 259.051086 L 312.154816 307.631653 Z M 471.016479 179.65036 C 459.96286 140.044891 439.594604 103.764587 411.644653 74.007996 L 376.235809 107.269196 C 398.761017 131.249207 415.255737 160.578278 424.223694 192.709473 L 471.016479 179.65036 Z M 411.625122 73.988251 C 378.577423 38.884918 335.891296 14.752045 289.108185 4.853271 L 279.052002 52.381561 C 316.015381 60.202728 349.905151 79.302979 376.251984 107.288574 L 411.625122 73.988251 Z M 289.062866 4.843536 C 242.4935 -4.91568 194.136414 0.151306 150.492264 19.335114 L 170.040451 63.809326 C 204.438721 48.689758 242.477341 44.716858 279.100616 52.391296 L 289.062866 4.843536 Z M 150.467987 19.345825 C 106.531403 38.714905 69.322258 71.031647 43.5182 112.071869 L 84.644882 137.930328 C 105.366104 104.974548 135.131424 79.198669 170.064743 63.798645 L 150.467987 19.345825 Z M 43.517876 112.07251 C -19.05488 211.597565 -6.971597 342.110901 72.968048 427.836182 L 108.49762 394.704224 C 43.686932 325.201599 33.724667 218.920258 84.64521 137.929993 L 43.517876 112.07251 Z M 72.957687 427.826477 C 152.339981 513.059448 280.7005 526.53894 375.384033 459.284027 L 347.252655 419.677887 C 272.577881 472.71814 171.422409 462.270081 108.508308 394.717194 L 72.957687 427.826477 Z M 375.390503 459.277527 C 414.808777 431.262756 445.213745 392.019348 462.903534 346.522003 L 417.62323 328.919647 C 403.324341 365.698364 378.813843 397.243347 347.246155 419.681091 L 375.390503 459.277527 Z M 471.165497 192.145935 L 493.587036 103.665161 L 446.493011 91.732788 L 424.074738 180.214203 L 471.165497 192.145935 Z M 454.243317 162.810394 L 370.593994 139.103058 L 357.347687 185.842743 L 440.996979 209.55072 L 454.243317 162.810394 Z M 193.131149 186.180237 L 193.131149 283.34137 L 241.712982 283.34137 L 241.712982 186.180237 L 193.131149 186.180237 Z M 217.422699 307.631653 L 312.154816 307.631653 L 312.154816 259.051086 L 217.422699 259.051086 L 217.422699 307.631653 Z"/>
</svg>
