<?xml version="1.0" encoding="UTF-8"?>
<!-- Generated by Pixelmator Pro 3.3.2 -->
<svg width="500" height="500" viewBox="0 0 500 500" xmlns="http://www.w3.org/2000/svg" xmlns:xlink="http://www.w3.org/1999/xlink">
    <path id="home-svgrepo-com-2-copy-2" fill="none" stroke="#f2f2f2" stroke-width="33.333332" d="M 452.561737 167.156921 L 293.701538 39.850586 C 269.173309 20.088257 229.515594 20.088257 205.216599 39.620819 L 46.356178 167.156921 C 28.475803 181.404236 17.014029 211.506195 20.911032 234.026093 L 51.399353 416.942749 C 56.901009 449.573608 88.077034 476 121.08696 476 L 377.830994 476 C 410.611633 476 442.016937 449.343811 447.518524 416.942749 L 478.006897 234.026093 C 481.674652 211.506195 470.21286 181.404236 452.561737 167.156921 Z M 249.459076 330.999512 C 217.82457 330.999512 192.149979 305.262451 192.149979 273.550781 C 192.149979 241.839111 217.82457 216.102081 249.459076 216.102081 C 281.093597 216.102081 306.767944 241.839111 306.767944 273.550781 C 306.767944 305.262451 281.093597 330.999512 249.459076 330.999512 Z"/>
    <g id="Group-copy">
        <path id="home-svgrepo-com-2" fill="none" stroke="#f2f2f2" stroke-width="33.333332" d="M 452.561737 167.156921 L 293.701538 39.850586 C 269.173309 20.088257 229.515594 20.088257 205.216599 39.620819 L 46.356178 167.156921 C 28.475803 181.404236 17.014029 211.506195 20.911032 234.026093 L 51.399353 416.942749 C 56.901009 449.573608 88.077034 476 121.08696 476 L 377.830994 476 C 410.611633 476 442.016937 449.343811 447.518524 416.942749 L 478.006897 234.026093 C 481.674652 211.506195 470.21286 181.404236 452.561737 167.156921 Z M 249.459076 330.999512 C 217.82457 330.999512 192.149979 305.262451 192.149979 273.550781 C 192.149979 241.839111 217.82457 216.102081 249.459076 216.102081 C 281.093597 216.102081 306.767944 241.839111 306.767944 273.550781 C 306.767944 305.262451 281.093597 330.999512 249.459076 330.999512 Z"/>
        <path id="home-svgrepo-com-2-copy" fill="#ff6900" stroke="#ff6900" stroke-width="33.333332" d="M 249.461472 335.997253 C 215.862976 335.997253 188.594376 308.662354 188.594376 274.981873 C 188.594376 241.301392 215.862976 213.966492 249.461472 213.966492 C 283.059998 213.966492 310.328339 241.301392 310.328339 274.981873 C 310.328339 308.662354 283.059998 335.997253 249.461472 335.997253 Z"/>
    </g>
</svg>
