<?xml version="1.0" encoding="UTF-8"?>
<!-- Generated by Pixelmator Pro 3.3.2 -->
<svg width="500" height="500" viewBox="0 0 500 500" xmlns="http://www.w3.org/2000/svg" xmlns:xlink="http://www.w3.org/1999/xlink">
    <path id="Ellipse" fill="none" stroke="#f2f2f2" stroke-width="20" d="M 482 250 C 482 121.869934 378.130066 18 250 18 C 121.869942 18 18 121.869934 18 250 C 18 378.130066 121.869942 482 250 482 C 378.130066 482 482 378.130066 482 250 Z"/>
    <path id="i" fill="#ff6900" fill-rule="evenodd" stroke="none" d="M 218.367004 365.740509 L 281.493011 365.740509 L 281.493011 193.897491 L 218.367004 193.897491 Z M 249.929993 176.362488 C 270.621307 176.362488 285 161.28241 285 143.046021 C 285 124.80957 270.621307 109.729492 249.929993 109.729492 C 229.238708 109.729492 214.860001 124.80957 214.860001 143.046021 C 214.860001 161.28241 229.238708 176.362488 249.929993 176.362488 Z"/>
</svg>
