<?xml version="1.0" encoding="UTF-8"?>
<!-- Generated by Pixelmator Pro 3.3.2 -->
<svg width="500" height="500" viewBox="0 0 500 500" xmlns="http://www.w3.org/2000/svg" xmlns:xlink="http://www.w3.org/1999/xlink">
    <path id="chart-mixed-svgrepo-com" fill="#f2f2f2" stroke="none" d="M 11.702621 133.951813 C 0.290882 140.798706 -3.409364 155.600342 3.437553 167.011749 C 10.28447 178.423523 25.0861 182.123749 36.497517 175.276825 L 11.702621 133.951813 Z M 184.742874 58.228638 L 199.200729 38.951477 C 191.364594 33.073273 180.746078 32.525421 172.344482 37.566101 L 184.742874 58.228638 Z M 313.257141 154.614319 L 298.799286 173.891479 C 307.58963 180.484863 319.727814 180.295319 328.309357 173.43042 L 313.257141 154.614319 Z M 488.952179 44.916138 C 499.345764 36.602539 501.029327 21.439209 492.717621 11.04715 C 484.402771 0.655243 469.238098 -1.029602 458.847717 7.283997 L 488.952179 44.916138 Z M 417.674957 475.899933 C 417.674957 489.207581 428.463745 499.996368 441.771393 499.996368 C 455.07901 499.996368 465.867798 489.207581 465.867798 475.899933 L 417.674957 475.899933 Z M 465.867798 218.871429 C 465.867798 205.563782 455.07901 194.775024 441.771393 194.775024 C 428.463745 194.775024 417.674957 205.563782 417.674957 218.871429 L 465.867798 218.871429 Z M 160.646454 475.899933 C 160.646454 489.207581 171.435242 499.996368 184.742874 499.996368 C 198.050522 499.996368 208.839294 489.207581 208.839294 475.899933 L 160.646454 475.899933 Z M 208.839294 218.871429 C 208.839294 205.563782 198.050522 194.775024 184.742874 194.775024 C 171.435242 194.775024 160.646454 205.563782 160.646454 218.871429 L 208.839294 218.871429 Z M 289.160706 475.899933 C 289.160706 489.207581 299.949493 499.996368 313.257141 499.996368 C 326.564789 499.996368 337.353546 489.207581 337.353546 475.899933 L 289.160706 475.899933 Z M 337.353546 315.257141 C 337.353546 301.949463 326.564789 291.160706 313.257141 291.160706 C 299.949493 291.160706 289.160706 301.949463 289.160706 315.257141 L 337.353546 315.257141 Z M 32.13221 475.899933 C 32.13221 489.207581 42.920662 499.996368 56.22863 499.996368 C 69.536598 499.996368 80.32505 489.207581 80.32505 475.899933 L 32.13221 475.899933 Z M 80.32505 315.257141 C 80.32505 301.949463 69.536598 291.160706 56.22863 291.160706 C 42.920662 291.160706 32.13221 301.949463 32.13221 315.257141 L 80.32505 315.257141 Z M 36.497517 175.276825 L 197.141281 78.891144 L 172.344482 37.566101 L 11.702621 133.951813 L 36.497517 175.276825 Z M 170.285034 77.505768 L 298.799286 173.891479 L 327.714966 135.337158 L 199.200729 38.951477 L 170.285034 77.505768 Z M 328.309357 173.43042 L 488.952179 44.916138 L 458.847717 7.283997 L 298.204895 135.798187 L 328.309357 173.43042 Z M 465.867798 475.899933 L 465.867798 218.871429 L 417.674957 218.871429 L 417.674957 475.899933 L 465.867798 475.899933 Z M 208.839294 475.899933 L 208.839294 218.871429 L 160.646454 218.871429 L 160.646454 475.899933 L 208.839294 475.899933 Z M 337.353546 475.899933 L 337.353546 315.257141 L 289.160706 315.257141 L 289.160706 475.899933 L 337.353546 475.899933 Z M 80.32505 475.899933 L 80.32505 315.257141 L 32.13221 315.257141 L 32.13221 475.899933 L 80.32505 475.899933 Z"/>
</svg>
