<?xml version="1.0" encoding="UTF-8"?>
<!-- Generated by Pixelmator Pro 3.3.2 -->
<svg width="500" height="500" viewBox="0 0 500 500" xmlns="http://www.w3.org/2000/svg" xmlns:xlink="http://www.w3.org/1999/xlink">
    <g id="edit-svgrepo-com">
        <path id="Path" fill="none" stroke="#ff6900" stroke-width="38.472385" stroke-linecap="round" stroke-linejoin="round" d="M 391.993225 52.272186 L 432.158386 84.255554 C 436.036377 87.906097 438.224182 93.004944 438.19342 98.331573 C 438.165192 103.657928 435.923523 108.732727 432.004486 112.340393 L 401.483032 148.863525 L 297.63327 272.719452 C 295.814789 274.799561 293.396149 276.261475 290.708252 276.900146 L 236.846893 289.108704 C 229.780792 289.462646 223.627792 284.325317 222.714722 277.310486 L 222.714722 221.961548 C 222.896805 219.291565 223.971481 216.762665 225.766846 214.78006 L 327.693024 99.541931 L 362.677216 57.760895 C 369.597137 48.688599 382.257111 46.318481 391.993225 52.272186 Z"/>
        <path id="path1" fill="#ff6900" stroke="none" d="M 345.474945 92.20343 C 341.419952 82.383484 330.173187 77.709076 320.352509 81.763092 C 310.531769 85.817017 305.858643 97.064056 309.913635 106.883972 Z M 405.635498 167.545441 C 416.007629 165.252502 422.558228 154.984222 420.265259 144.610779 C 417.972321 134.237366 407.705292 127.686798 397.330597 129.97998 Z M 309.913635 106.883972 C 314.912506 118.993286 325.11026 136.156647 340.352997 149.418274 C 355.941986 162.983917 378.345764 173.578156 405.635498 167.545441 L 397.330597 129.97998 C 385.404144 132.616394 375.042267 128.604248 365.606262 120.39447 C 355.821442 111.880554 348.734833 100.099792 345.474945 92.20343 Z"/>
        <path id="Path-copy" fill="#f2f2f2" stroke="none" d="M 246.644531 116.163788 C 257.268036 116.163788 265.880707 107.551605 265.880707 96.927612 C 265.880707 86.303864 257.268036 77.691406 246.644531 77.691406 Z M 174.829681 96.927612 L 174.829681 77.691406 L 174.783493 77.691406 Z M 79.084732 193.109833 L 98.320923 193.109833 L 98.320923 193.066223 Z M 79.084732 337.381287 L 98.320923 337.422302 L 98.320923 337.381287 Z M 174.829681 433.562225 L 174.783493 452.798431 L 174.829681 452.798431 Z M 318.459656 433.562225 L 318.459656 452.798431 L 318.505798 452.798431 Z M 414.20459 337.381287 L 394.968384 337.381287 L 394.968384 337.422302 Z M 433.440765 241.200317 C 433.440765 230.574249 424.828094 221.964111 414.20459 221.964111 C 403.581085 221.964111 394.968384 230.574249 394.968384 241.200317 Z M 150.899841 342.203125 C 140.276077 342.203125 131.663666 350.813293 131.663666 361.439331 C 131.663666 372.062836 140.276077 380.675537 150.899841 380.675537 Z M 342.415131 380.675537 C 353.038635 380.675537 361.651306 372.062836 361.651306 361.439331 C 361.651306 350.813293 353.038635 342.203125 342.415131 342.203125 Z M 246.644531 77.691406 L 174.829681 77.691406 L 174.829681 116.163788 L 246.644531 116.163788 Z M 174.783493 77.691406 C 111.165573 77.844299 59.712345 129.531921 59.848537 193.150879 L 98.320923 193.066223 C 98.230125 150.693268 132.501831 116.265594 174.875839 116.163788 Z M 59.848537 193.109833 L 59.848537 337.381287 L 98.320923 337.381287 L 98.320923 193.109833 Z M 59.848537 337.337708 C 59.712345 400.955627 111.165573 452.644531 174.783493 452.798431 L 174.875839 414.32605 C 132.501831 414.22345 98.230125 379.795776 98.320923 337.422302 Z M 174.829681 452.798431 L 318.459656 452.798431 L 318.459656 414.32605 L 174.829681 414.32605 Z M 318.505798 452.798431 C 382.123779 452.644531 433.576721 400.955627 433.440765 337.337708 L 394.968384 337.422302 C 395.058167 379.795776 360.786957 414.22345 318.413483 414.32605 Z M 433.440765 337.381287 L 433.440765 241.200317 L 394.968384 241.200317 L 394.968384 337.381287 Z M 150.899841 380.675537 L 342.415131 380.675537 L 342.415131 342.203125 L 150.899841 342.203125 Z"/>
    </g>
</svg>
