<?xml version="1.0" encoding="UTF-8"?>
<!-- Generated by Pixelmator Pro 3.3.2 -->
<svg width="500" height="500" viewBox="0 0 500 500" xmlns="http://www.w3.org/2000/svg" xmlns:xlink="http://www.w3.org/1999/xlink">
    <g id="cube-svgrepo-com">
        <path id="Path" fill="#ff6900" fill-rule="evenodd" stroke="#ff6900" stroke-width="48.19231" stroke-linecap="round" stroke-linejoin="round" d="M 249.000015 206.472473 L 24.102568 116.513458 L 249.000015 26.554504 L 473.89743 116.513458 L 249.000015 206.472473 Z"/>
        <path id="path1" fill="#ff6900" stroke="none" d="M 33.051559 364.016357 C 20.69569 359.075012 6.672373 365.086182 1.729764 377.442719 C -3.212522 389.79599 2.797398 403.819977 15.153561 408.764496 L 33.051559 364.016357 Z M 249.000015 476.349365 L 240.052307 498.72345 C 245.796829 501.02066 252.203186 501.02066 257.947693 498.72345 L 249.000015 476.349365 Z M 482.845123 408.764496 C 495.20166 403.819977 501.21286 389.79599 496.271515 377.442719 C 491.326965 365.086182 477.30307 359.075012 464.949738 364.016357 L 482.845123 408.764496 Z M 33.051559 229.077881 C 20.69569 224.136536 6.672373 230.147736 1.729764 242.504242 C -3.212522 254.857513 2.797398 268.88147 15.153561 273.825989 L 33.051559 229.077881 Z M 249.000015 341.41095 L 240.052307 363.784973 C 245.796829 366.082153 252.203186 366.082153 257.947693 363.784973 L 249.000015 341.41095 Z M 482.845123 273.825989 C 495.20166 268.88147 501.21286 254.857513 496.271515 242.504242 C 491.326965 230.147736 477.30307 224.136536 464.949738 229.077881 L 482.845123 273.825989 Z M 15.153561 408.764496 L 240.052307 498.72345 L 257.947693 453.975311 L 33.051559 364.016357 L 15.153561 408.764496 Z M 257.947693 498.72345 L 482.845123 408.764496 L 464.949738 364.016357 L 240.052307 453.975311 L 257.947693 498.72345 Z M 15.153561 273.825989 L 240.052307 363.784973 L 257.947693 319.036835 L 33.051559 229.077881 L 15.153561 273.825989 Z M 257.947693 363.784973 L 482.845123 273.825989 L 464.949738 229.077881 L 240.052307 319.036835 L 257.947693 363.784973 Z"/>
    </g>
</svg>
