<?xml version="1.0" encoding="UTF-8"?>
<!-- Generated by Pixelmator Pro 3.3.2 -->
<svg width="500" height="500" viewBox="0 0 500 500" xmlns="http://www.w3.org/2000/svg" xmlns:xlink="http://www.w3.org/1999/xlink">
    <path id="paste-svgrepo-com" fill="#f2f2f2" fill-rule="evenodd" stroke="none" d="M 229.076569 107.722534 C 217.813873 107.722534 208.684235 116.8526 208.684235 128.114838 L 208.684235 168.899536 L 290.253601 168.899536 L 290.253601 128.114838 C 290.253601 116.8526 281.123962 107.722534 269.861267 107.722534 L 229.076569 107.722534 Z M 327.557312 107.722534 C 319.159729 83.961578 296.497711 66.937836 269.861267 66.937836 L 229.076569 66.937836 C 202.439682 66.937836 179.778885 83.961578 171.380707 107.722534 L 127.114853 107.722534 C 93.327797 107.722534 65.93782 135.112488 65.93782 168.899536 L 65.93782 372.822968 C 65.93782 406.611053 93.327797 434 127.114853 434 L 371.822968 434 C 405.611084 434 433 406.611053 433 372.822968 L 433 168.899536 C 433 135.112488 405.611084 107.722534 371.822968 107.722534 L 327.557312 107.722534 Z M 331.038269 148.507172 L 331.038269 189.29187 C 331.038269 200.554169 321.908661 209.684235 310.645935 209.684235 L 188.291885 209.684235 C 177.029587 209.684235 167.899536 200.554169 167.899536 189.29187 L 167.899536 148.507172 L 127.114853 148.507172 C 115.85257 148.507172 106.722511 157.637238 106.722511 168.899536 L 106.722511 372.822968 C 106.722511 384.085663 115.85257 393.215302 127.114853 393.215302 L 371.822968 393.215302 C 383.085632 393.215302 392.215302 384.085663 392.215302 372.822968 L 392.215302 168.899536 C 392.215302 157.637238 383.085632 148.507172 371.822968 148.507172 L 331.038269 148.507172 Z"/>
</svg>
