<?xml version="1.0" encoding="UTF-8"?>
<!-- Generated by Pixelmator Pro 3.3.2 -->
<svg width="500" height="500" viewBox="0 0 500 500" xmlns="http://www.w3.org/2000/svg" xmlns:xlink="http://www.w3.org/1999/xlink">
    <path id="paste-svgrepo-com" fill="#f2f2f2" fill-rule="evenodd" stroke="none" d="M 229.076553 63.722015 C 217.813873 63.722015 208.684235 72.852051 208.684235 84.114288 L 208.684235 124.899323 L 290.253601 124.899323 L 290.253601 84.114288 C 290.253601 72.852051 281.123962 63.722015 269.861267 63.722015 L 229.076553 63.722015 Z M 327.557312 63.722015 C 319.159729 39.96109 296.497711 22.937317 269.861267 22.937317 L 229.076553 22.937317 C 202.439682 22.937317 179.778885 39.96109 171.380707 63.722015 L 127.114853 63.722015 C 93.327797 63.722015 65.93782 91.11203 65.93782 124.899323 L 65.93782 415.822968 C 65.93782 449.611053 93.327797 477 127.114853 477 L 371.822968 477 C 405.611053 477 433 449.611053 433 415.822968 L 433 124.899323 C 433 91.11203 405.611053 63.722015 371.822968 63.722015 L 327.557312 63.722015 Z M 331.038269 104.506805 L 331.038269 145.291718 C 331.038269 156.554169 321.908661 165.684235 310.645935 165.684235 L 188.291885 165.684235 C 177.029587 165.684235 167.899536 156.554169 167.899536 145.291718 L 167.899536 104.506805 L 127.114853 104.506805 C 115.85257 104.506805 106.722511 113.636993 106.722511 124.899323 L 106.722511 415.822968 C 106.722511 427.085663 115.85257 436.215302 127.114853 436.215302 L 371.822968 436.215302 C 383.085632 436.215302 392.215302 427.085663 392.215302 415.822968 L 392.215302 124.899323 C 392.215302 113.636993 383.085632 104.506805 371.822968 104.506805 L 331.038269 104.506805 Z"/>
</svg>
