<?xml version="1.0" encoding="UTF-8"?>
<!-- Generated by Pixelmator Pro 3.3.2 -->
<svg width="500" height="500" viewBox="0 0 500 500" xmlns="http://www.w3.org/2000/svg" xmlns:xlink="http://www.w3.org/1999/xlink">
    <g id="qrcode-svgrepo-com">
        <path id="Path" fill="#f2f2f2" stroke="none" d="M 266.7742 72 L 266.7742 233.2258 L 428 233.2258 L 428 72 L 266.7742 72 Z M 393.45163 198.677429 L 301.322571 198.677429 L 301.322571 106.54837 L 393.45163 106.54837 L 393.45163 198.677429 Z"/>
        <path id="path1" fill="#f2f2f2" stroke="none" d="M 71.000031 233.2258 L 232.225815 233.2258 L 232.225815 72 L 71.000031 72 L 71.000031 233.2258 Z M 105.548416 106.54837 L 197.677429 106.54837 L 197.677429 198.677429 L 105.548416 198.677429 L 105.548416 106.54837 Z"/>
        <path id="path2" fill="#f2f2f2" stroke="none" d="M 71.000031 428.999969 L 232.225815 428.999969 L 232.225815 267.77417 L 71.000031 267.77417 L 71.000031 428.999969 Z M 105.548416 302.322571 L 197.677429 302.322571 L 197.677429 394.451599 L 105.548416 394.451599 L 105.548416 302.322571 Z"/>
        <path id="path3" fill="#ff6900" stroke="none" d="M 307.080658 267.77417 L 266.7742 267.77417 L 266.7742 308.080627 L 307.080658 308.080627 L 307.080658 267.77417 Z"/>
        <path id="path4" fill="#ff6900" stroke="none" d="M 387.693512 267.77417 L 347.387085 267.77417 L 347.387085 308.080627 L 387.693512 308.080627 L 387.693512 267.77417 Z"/>
        <path id="path5" fill="#ff6900" stroke="none" d="M 347.387085 308.080627 L 307.080658 308.080627 L 307.080658 348.387085 L 347.387085 348.387085 L 347.387085 308.080627 Z"/>
        <path id="path6" fill="#ff6900" stroke="none" d="M 428 308.080627 L 387.693512 308.080627 L 387.693512 348.387085 L 428 348.387085 L 428 308.080627 Z"/>
        <path id="path7" fill="#ff6900" stroke="none" d="M 307.080658 348.387085 L 266.7742 348.387085 L 266.7742 388.693542 L 307.080658 388.693542 L 307.080658 348.387085 Z"/>
        <path id="path8" fill="#ff6900" stroke="none" d="M 387.693512 348.387085 L 347.387085 348.387085 L 347.387085 388.693542 L 387.693512 388.693542 L 387.693512 348.387085 Z"/>
        <path id="path9" fill="#ff6900" stroke="none" d="M 347.387085 388.693542 L 307.080658 388.693542 L 307.080658 428.999969 L 347.387085 428.999969 L 347.387085 388.693542 Z"/>
        <path id="path10" fill="#ff6900" stroke="none" d="M 428 388.693542 L 387.693512 388.693542 L 387.693512 428.999969 L 428 428.999969 L 428 388.693542 Z"/>
    </g>
</svg>
