<?xml version="1.0" encoding="UTF-8"?>
<!-- Generated by Pixelmator Pro 3.3.2 -->
<svg width="500" height="500" viewBox="0 0 500 500" xmlns="http://www.w3.org/2000/svg" xmlns:xlink="http://www.w3.org/1999/xlink">
    <g id="user-add-svgrepo-com">
        <path id="Path" fill="none" stroke="#f2f2f2" stroke-width="38.844421" stroke-linecap="round" stroke-linejoin="round" d="M 214.511261 119.214783 C 214.511261 147.819031 191.32373 171.007324 162.718689 171.007324 C 134.114426 171.007324 110.926132 147.819031 110.926132 119.214783 C 110.926132 90.610504 134.114426 67.422211 162.718689 67.422211 C 191.32373 67.422211 214.511261 90.610504 214.511261 119.214783 Z"/>
        <path id="path1" fill="none" stroke="#f2f2f2" stroke-width="38.844421" stroke-linecap="round" stroke-linejoin="round" d="M 292.200104 339.33316 C 292.200104 389.390686 234.218323 429.970154 162.718689 429.970154 C 91.219055 429.970154 33.237289 389.390686 33.237289 339.33316 C 33.237289 289.275665 91.219055 248.696182 162.718689 248.696182 C 234.218323 248.696182 292.200104 289.275665 292.200104 339.33316 Z"/>
        <path id="path2" fill="#ff6900" stroke="none" d="M 376.363007 119.214783 C 376.363007 129.941254 385.05899 138.636993 395.785217 138.636993 C 406.511475 138.636993 415.207428 129.941254 415.207428 119.214783 Z M 415.207428 119.214783 C 415.207428 108.488281 406.511475 99.792572 395.785217 99.792572 C 385.05899 99.792572 376.363007 108.488281 376.363007 119.214783 Z M 395.785217 138.636993 C 406.511475 138.636993 415.207428 129.941254 415.207428 119.214783 C 415.207428 108.488281 406.511475 99.792572 395.785217 99.792572 Z M 343.992676 99.792572 C 333.266418 99.792572 324.570465 108.488281 324.570465 119.214783 C 324.570465 129.941254 333.266418 138.636993 343.992676 138.636993 Z M 395.785217 99.792572 C 385.05899 99.792572 376.363007 108.488281 376.363007 119.214783 C 376.363007 129.941254 385.05899 138.636993 395.785217 138.636993 Z M 447.577789 138.636993 C 458.304016 138.636993 467 129.941254 467 119.214783 C 467 108.488281 458.304016 99.792572 447.577789 99.792572 Z M 376.363007 119.214783 L 415.207428 119.214783 Z M 376.363007 119.214783 L 415.207428 119.214783 Z M 395.785217 99.792572 L 343.992676 99.792572 L 343.992676 138.636993 L 395.785217 138.636993 Z M 395.785217 138.636993 L 447.577789 138.636993 L 447.577789 99.792572 L 395.785217 99.792572 Z"/>
    </g>
</svg>
