<?xml version="1.0" encoding="UTF-8"?>
<!-- Generated by Pixelmator Pro 3.3.2 -->
<svg width="500" height="500" viewBox="0 0 500 500" xmlns="http://www.w3.org/2000/svg" xmlns:xlink="http://www.w3.org/1999/xlink">
    <g id="Group">
        <path id="Path" fill="#ff6900" stroke="none" d="M 280.529053 205.26358 C 280.529053 195.339752 278.589172 185.72226 274.763519 176.677917 C 271.064026 167.932251 265.765625 160.074402 259.015289 153.324066 C 252.262833 146.572327 244.405701 141.273926 235.661438 137.575104 C 231.158661 135.670624 226.465332 134.218658 221.71167 133.258759 C 213.034622 131.506744 207.420181 123.052887 209.172241 114.375854 C 210.923615 105.698792 219.376755 100.084351 228.055878 101.836426 C 234.911575 103.220459 241.6716 105.311401 248.149567 108.050995 C 260.71463 113.366028 271.996857 120.971619 281.682983 130.656342 C 291.367035 140.340393 298.972595 151.62262 304.2883 164.189758 C 309.794617 177.207397 312.586243 191.026886 312.586243 205.26358 C 312.586243 214.115967 305.41037 221.29184 296.557983 221.29184 C 287.704926 221.29184 280.529053 214.115967 280.529053 205.26358 Z"/>
        <path id="path1" fill="#f2f2f2" stroke="none" d="M 270.524811 358.453369 C 250.014603 367.128296 228.238144 371.527161 205.801208 371.527161 C 183.36499 371.527161 161.588593 367.128296 141.077637 358.453369 C 121.276421 350.078552 103.498184 338.092865 88.2351 322.829742 C 72.97197 307.566589 60.986298 289.788422 52.611446 269.987152 C 43.936474 249.476929 39.537674 227.7005 39.537674 205.26358 C 39.537674 182.82666 43.936474 161.050903 52.611446 140.540009 C 60.986298 120.738739 72.97197 102.960541 88.2351 87.697418 C 103.498184 72.434296 121.276421 60.449341 141.077637 52.073761 C 161.587875 43.398834 183.364319 39 205.801208 39 C 228.237473 39 250.013885 43.398834 270.524811 52.073761 C 290.32605 60.448608 308.104279 72.434296 323.367401 87.697418 C 338.630493 102.960541 350.61618 120.738739 358.991028 140.540009 C 367.665985 161.050903 372.064789 182.82666 372.064789 205.26358 C 372.064789 227.699799 367.665985 249.476242 358.991028 269.987152 C 354.557587 280.469604 349.101837 290.378906 342.693878 299.654694 L 452.416046 409.376831 C 464.152222 421.113068 464.152222 440.14151 452.416046 451.878418 C 446.547974 457.746521 438.856476 460.680817 431.164948 460.680817 C 423.473419 460.680817 415.782623 457.746521 409.913849 451.878418 L 300.191681 342.156219 C 290.916534 348.563507 281.007263 354.019226 270.524811 358.453369 Z M 295.076233 115.988556 C 271.230347 92.14267 239.525223 79.01001 205.801926 79.01001 C 172.078644 79.01001 140.373505 92.14267 116.527626 115.988556 C 92.681023 139.834473 79.548363 171.539612 79.548363 205.26358 C 79.548363 238.987549 92.681023 270.692017 116.527626 294.537903 C 140.373505 318.384491 172.078644 331.517151 205.801926 331.517151 C 239.525223 331.517151 271.230347 318.384491 295.076233 294.537903 C 318.92215 270.692017 332.05481 238.987549 332.05481 205.26358 C 332.05481 171.540283 318.92215 139.835144 295.076233 115.988556 Z"/>
    </g>
</svg>
