<?xml version="1.0" encoding="UTF-8"?>
<!-- Generated by Pixelmator Pro 3.3.2 -->
<svg width="500" height="500" viewBox="0 0 500 500" xmlns="http://www.w3.org/2000/svg" xmlns:xlink="http://www.w3.org/1999/xlink">
    <g id="Group">
        <path id="Path" fill="#ff6900" stroke="none" d="M 269.533875 221.519379 C 269.533875 215.214478 268.301392 209.104187 265.87085 203.358032 C 263.520447 197.801636 260.154205 192.809296 255.865509 188.520599 C 251.57547 184.231018 246.583588 180.864777 241.028091 178.514832 C 238.167343 177.30484 235.185516 176.382355 232.165375 175.772491 C 226.652573 174.659393 223.085556 169.288391 224.198685 163.775604 C 225.311386 158.262817 230.681931 154.695801 236.196045 155.808929 C 240.551682 156.688232 244.846527 158.016693 248.962173 159.757233 C 256.94516 163.134033 264.113098 167.966095 270.266968 174.11911 C 276.419556 180.271698 281.251617 187.439636 284.628845 195.42392 C 288.127167 203.694427 289.900787 212.474365 289.900787 221.519379 C 289.900787 227.143585 285.341736 231.702637 279.717529 231.702637 C 274.092926 231.702637 269.533875 227.143585 269.533875 221.519379 Z"/>
        <path id="path1" fill="#f2f2f2" stroke="none" d="M 263.177856 318.845581 C 250.147095 324.357025 236.311844 327.151733 222.056961 327.151733 C 207.802551 327.151733 193.967331 324.357025 180.936096 318.845581 C 168.355774 313.52478 157.060699 305.909912 147.363602 296.212769 C 137.666458 286.515625 130.05159 275.220612 124.730797 262.640259 C 119.219322 249.609482 116.424629 235.774261 116.424629 221.519379 C 116.424629 207.264496 119.219322 193.429718 124.730797 180.398499 C 130.05159 167.818146 137.666458 156.523132 147.363602 146.825989 C 157.060699 137.128845 168.355774 129.514435 180.936096 124.193176 C 193.966873 118.681732 207.802124 115.887024 222.056961 115.887024 C 236.311417 115.887024 250.146637 118.681732 263.177856 124.193176 C 275.758209 129.513977 287.053253 137.128845 296.750366 146.825989 C 306.44751 156.523132 314.062378 167.818146 319.383179 180.398499 C 324.894653 193.429718 327.689331 207.264496 327.689331 221.519379 C 327.689331 235.773804 324.894653 249.609055 319.383179 262.640259 C 316.566467 269.300049 313.100281 275.595764 309.029083 281.488953 L 378.738953 351.198792 C 386.195313 358.655212 386.195313 370.744568 378.738953 378.201355 C 375.010773 381.929565 370.124146 383.793823 365.237488 383.793823 C 360.35083 383.793823 355.46463 381.929565 351.735992 378.201355 L 282.026123 308.491486 C 276.133331 312.562225 269.837677 316.028412 263.177856 318.845581 Z M 278.776154 164.800201 C 263.626129 149.650177 243.482864 141.30661 222.057419 141.30661 C 200.631973 141.30661 180.488739 149.650177 165.338715 164.800201 C 150.188232 179.950256 141.84465 200.093506 141.84465 221.519379 C 141.84465 242.945251 150.188232 263.088074 165.338715 278.238098 C 180.488739 293.38858 200.631973 301.732178 222.057419 301.732178 C 243.482864 301.732178 263.626129 293.38858 278.776154 278.238098 C 293.926178 263.088074 302.269745 242.945251 302.269745 221.519379 C 302.269745 200.093933 293.926178 179.950684 278.776154 164.800201 Z"/>
    </g>
</svg>
