<?xml version="1.0" encoding="UTF-8"?>
<!-- Generated by Pixelmator Pro 3.3.2 -->
<svg width="500" height="500" viewBox="0 0 500 500" xmlns="http://www.w3.org/2000/svg" xmlns:xlink="http://www.w3.org/1999/xlink">
    <path id="download-svgrepo-com" fill="#ff6900" stroke="none" d="M 54.032242 346.7742 C 54.032242 333.412903 43.200298 322.580658 29.838692 322.580658 C 16.477087 322.580658 5.645142 333.412903 5.645142 346.7742 L 54.032242 346.7742 Z M 29.838692 379.032288 L 5.645142 379.032288 L 29.838692 379.032288 Z M 494.354858 346.7742 C 494.354858 333.412903 483.522583 322.580658 470.161316 322.580658 C 456.799988 322.580658 445.967743 333.412903 445.967743 346.7742 L 494.354858 346.7742 Z M 230.922562 364.151611 C 222.706451 374.687134 224.583862 389.89032 235.119339 398.10968 C 245.654846 406.325806 260.858063 404.448425 269.077393 393.912903 L 230.922562 364.151611 Z M 394.883942 232.622589 C 403.100037 222.087067 401.222565 206.88385 390.687103 198.66452 C 380.151611 190.448395 364.948395 192.325775 356.729065 202.861298 L 394.883942 232.622589 Z M 230.922562 393.912903 C 239.141968 404.448425 254.345154 406.325806 264.880615 398.10968 C 275.416138 389.89032 277.293518 374.687134 269.077393 364.151611 L 230.922562 393.912903 Z M 143.270325 202.861298 C 135.052231 192.325775 119.849342 190.448395 109.313858 198.66452 C 98.778038 206.88385 96.89901 222.087067 105.116768 232.622589 L 143.270325 202.861298 Z M 225.806442 379.032288 C 225.806442 392.393555 236.638702 403.22583 250 403.22583 C 263.361267 403.22583 274.193542 392.393555 274.193542 379.032288 L 225.806442 379.032288 Z M 274.193542 24.193542 C 274.193542 10.83194 263.361267 0 250 0 C 236.638702 0 225.806442 10.83194 225.806442 24.193542 L 274.193542 24.193542 Z M 5.645142 346.7742 L 5.645142 379.032288 L 54.032242 379.032288 L 54.032242 346.7742 L 5.645142 346.7742 Z M 5.645142 379.032288 C 5.645142 445.261322 58.147404 500 124.193535 500 L 124.193535 451.612915 C 86.018379 451.612915 54.032242 419.700012 54.032242 379.032288 L 5.645142 379.032288 Z M 124.193535 500 L 375.806458 500 L 375.806458 451.612915 L 124.193535 451.612915 L 124.193535 500 Z M 375.806458 500 C 441.851593 500 494.354858 445.261322 494.354858 379.032288 L 445.967743 379.032288 C 445.967743 419.700012 413.980652 451.612915 375.806458 451.612915 L 375.806458 500 Z M 494.354858 379.032288 L 494.354858 346.7742 L 445.967743 346.7742 L 445.967743 379.032288 L 494.354858 379.032288 Z M 269.077393 393.912903 L 394.883942 232.622589 L 356.729065 202.861298 L 230.922562 364.151611 L 269.077393 393.912903 Z M 269.077393 364.151611 L 143.270325 202.861298 L 105.116768 232.622589 L 230.922562 393.912903 L 269.077393 364.151611 Z M 274.193542 379.032288 L 274.193542 24.193542 L 225.806442 24.193542 L 225.806442 379.032288 L 274.193542 379.032288 Z"/>
</svg>
