<?xml version="1.0" encoding="UTF-8"?>
<!-- Generated by Pixelmator Pro 3.3.2 -->
<svg width="500" height="500" viewBox="0 0 500 500" xmlns="http://www.w3.org/2000/svg" xmlns:xlink="http://www.w3.org/1999/xlink">
    <path id="upload-svgrepo-com" fill="#f2f2f2" stroke="none" d="M 53.249237 348.160858 C 53.249237 334.746155 42.374012 323.870636 28.959019 323.870636 C 15.544025 323.870636 4.668801 334.746155 4.668801 348.160858 L 53.249237 348.160858 Z M 28.959019 380.547821 L 4.668801 380.547821 L 28.959019 380.547821 Z M 495.331207 348.160858 C 495.331207 334.746155 484.455627 323.870636 471.040985 323.870636 C 457.626282 323.870636 446.750763 334.746155 446.750763 348.160858 L 495.331207 348.160858 Z M 269.153625 39.230438 C 277.402588 28.652802 275.5177 13.38916 264.940094 5.138275 C 254.362518 -3.112274 239.098572 -1.225769 230.846344 9.352173 L 269.153625 39.230438 Z M 104.537872 171.286926 C 96.287277 181.864502 98.17382 197.127533 108.751732 205.3797 C 119.329315 213.628662 134.592941 211.743774 142.843872 201.166168 L 104.537872 171.286926 Z M 269.153625 9.352173 C 260.901459 -1.225769 245.637482 -3.112274 235.059891 5.138275 C 224.482315 13.38916 222.597397 28.652802 230.846344 39.230438 L 269.153625 9.352173 Z M 357.155487 201.166168 C 365.407684 211.743774 380.671631 213.628662 391.249207 205.3797 C 401.826782 197.127533 403.711761 181.864502 395.46283 171.286926 L 357.155487 201.166168 Z M 274.290222 24.29129 C 274.290222 10.876312 263.414642 0.001099 250 0.001099 C 236.585312 0.001099 225.709778 10.876312 225.709778 24.29129 L 274.290222 24.29129 Z M 225.709778 380.547821 C 225.709778 393.962494 236.585312 404.838013 250 404.838013 C 263.414642 404.838013 274.290222 393.962494 274.290222 380.547821 L 225.709778 380.547821 Z M 4.668801 348.160858 L 4.668801 380.547821 L 53.249237 380.547821 L 53.249237 348.160858 L 4.668801 348.160858 Z M 4.668801 380.547821 C 4.668801 447.041504 57.38084 501.998901 123.690865 501.998901 L 123.690865 453.418457 C 85.363174 453.418457 53.249237 421.378052 53.249237 380.547821 L 4.668801 380.547821 Z M 123.690865 501.998901 L 376.309143 501.998901 L 376.309143 453.418457 L 123.690865 453.418457 L 123.690865 501.998901 Z M 376.309143 501.998901 C 442.618164 501.998901 495.331207 447.041504 495.331207 380.547821 L 446.750763 380.547821 C 446.750763 421.378052 414.635834 453.418457 376.309143 453.418457 L 376.309143 501.998901 Z M 495.331207 380.547821 L 495.331207 348.160858 L 446.750763 348.160858 L 446.750763 380.547821 L 495.331207 380.547821 Z M 230.846344 9.352173 L 104.537872 171.286926 L 142.843872 201.166168 L 269.153625 39.230438 L 230.846344 9.352173 Z M 230.846344 39.230438 L 357.155487 201.166168 L 395.46283 171.286926 L 269.153625 9.352173 L 230.846344 39.230438 Z M 225.709778 24.29129 L 225.709778 380.547821 L 274.290222 380.547821 L 274.290222 24.29129 L 225.709778 24.29129 Z"/>
</svg>
