<?xml version="1.0" encoding="UTF-8"?>
<!-- Generated by Pixelmator Pro 3.3.2 -->
<svg width="500" height="500" viewBox="0 0 500 500" xmlns="http://www.w3.org/2000/svg" xmlns:xlink="http://www.w3.org/1999/xlink">
    <g id="Group">
        <path id="arrow-up-svgrepo-com" fill="none" stroke="#f2f2f2" stroke-width="33.333332" d="M 249.500015 25.000031 C 122.816002 25.000031 20 126.024017 20 250.499985 C 20 374.976013 122.816002 476 249.500015 476 C 376.184052 476 478.999969 374.976013 478.999969 250.499985 C 478.999969 126.024017 376.184052 25.000031 249.500015 25.000031 Z"/>
        <path id="arrow-up-svgrepo-com-copy" fill="#ff6900" stroke="none" d="M 336.415649 239.10791 C 332.733093 243.00412 328.068481 244.822372 323.4039 244.822372 C 318.739349 244.822372 314.074768 243.00412 310.392212 239.10791 L 268.165405 194.430969 L 268.165405 353.856262 C 268.165405 364.506012 259.818268 373.337494 249.752563 373.337494 C 239.68689 373.337494 231.339737 364.506012 231.339737 353.856262 L 231.339737 194.430969 L 189.112946 239.10791 C 181.993301 246.64061 170.209091 246.64061 163.089478 239.10791 C 155.969849 231.575134 155.969849 219.107178 163.089478 211.574463 L 236.740845 133.649597 C 243.860458 126.116791 255.644669 126.116791 262.764313 133.649597 L 336.415649 211.574463 C 343.535248 219.107178 343.535248 231.575134 336.415649 239.10791 Z"/>
    </g>
</svg>
