<?xml version="1.0" encoding="UTF-8"?>
<!-- Generated by Pixelmator Pro 3.3.2 -->
<svg width="500" height="500" viewBox="0 0 500 500" xmlns="http://www.w3.org/2000/svg" xmlns:xlink="http://www.w3.org/1999/xlink">
    <path id="Gear" fill="none" stroke="#f2f2f2" stroke-width="20" d="M 464.015472 294.296875 C 450.167511 297.557434 430.869995 302.100342 415.475372 305.720642 C 412.870972 313.511597 409.721954 321.109619 406.051514 328.458527 C 414.378326 341.902069 424.809204 358.764343 432.308838 370.86792 C 438.027985 380.115631 438.927216 389.663696 428.028534 400.564087 L 400.062531 428.537292 C 389.164032 439.437714 379.614166 438.52948 370.3703 432.805023 C 358.266571 425.312622 341.397095 414.874359 327.962769 406.547607 C 320.611786 410.222015 313.009186 413.369965 305.212311 415.967865 C 301.597412 431.357269 297.065491 450.660034 293.792175 464.515442 C 291.310364 475.102875 285.195557 482.5 269.782928 482.5 L 230.217056 482.5 C 214.804428 482.5 208.689667 475.106506 206.207794 464.515442 C 202.934494 450.667297 198.402588 431.357269 194.787689 415.967865 C 186.990829 413.369965 179.388245 410.222015 172.037247 406.547607 C 158.602875 414.868958 141.733414 425.307251 129.629669 432.805023 C 120.385841 438.52948 110.835953 439.437714 99.937477 428.537292 L 71.971497 400.564087 C 61.072784 389.663696 61.972004 380.115631 67.691177 370.86792 C 75.190781 358.764343 85.621658 341.902069 93.948494 328.458527 C 90.278053 321.109619 87.129013 313.511597 84.524643 305.720642 C 69.130028 302.100342 49.832581 297.557434 35.984497 294.296875 C 25.391602 291.805969 18 285.696686 18 270.282166 L 18 230.717834 C 18 215.303314 25.391602 209.193878 35.984497 206.703033 C 49.832581 203.442444 69.130028 198.899536 84.524643 195.279236 C 87.129013 187.488373 90.278053 179.890381 93.948494 172.541351 C 85.621658 159.097931 75.190781 142.235626 67.691177 130.131958 C 61.972004 120.884338 61.072784 111.336304 71.971497 100.435913 L 99.937477 72.462708 C 110.835953 61.562195 120.385841 62.470428 129.629669 68.194977 C 141.733414 75.687286 158.602875 86.125549 172.037247 94.452393 C 179.388245 90.777985 186.990829 87.629913 194.787689 85.032104 C 198.402588 69.642731 202.934494 50.339813 206.207794 36.484558 C 208.689667 25.897034 214.804428 18.5 230.217056 18.5 L 269.782928 18.5 C 285.195557 18.5 291.310364 25.893494 293.792175 36.484558 C 297.065491 50.332703 301.597412 69.642731 305.212311 85.032104 C 313.009186 87.629913 320.611786 90.777985 327.962769 94.452393 C 341.397095 86.13092 358.266571 75.692749 370.3703 68.194977 C 379.614166 62.470428 389.164032 61.562195 400.062531 72.462708 L 428.028534 100.435913 C 438.927216 111.336304 438.027985 120.884338 432.308838 130.131958 C 424.809204 142.235626 414.378326 159.097931 406.051514 172.541351 C 409.721954 179.890381 412.870972 187.488373 415.475372 195.279236 C 430.869995 198.899536 450.167511 203.442444 464.015472 206.703033 C 474.608398 209.193878 482 215.303314 482 230.717834 L 482 270.283875 C 482 285.696686 474.608398 291.805969 464.015472 294.296875 Z"/>
    <path id="Ellipse" fill="none" stroke="#ff6900" stroke-width="20" d="M 324 250.5 C 324 209.354797 290.645203 176 249.5 176 C 208.354782 176 175 209.354797 175 250.5 C 175 291.645203 208.354782 325 249.5 325 C 290.645203 325 324 291.645203 324 250.5 Z"/>
</svg>
