<?xml version="1.0" encoding="UTF-8"?>
<!-- Generated by Pixelmator Pro 3.3.2 -->
<svg width="500" height="500" viewBox="0 0 500 500" xmlns="http://www.w3.org/2000/svg" xmlns:xlink="http://www.w3.org/1999/xlink">
    <path id="share-2-svgrepo-com" fill="#f2f2f2" stroke="none" d="M 248.5 86.709686 C 259.215759 86.709686 267.903229 78.044098 267.903229 67.354828 C 267.903229 56.665558 259.215759 48 248.5 48 Z M 449 248 C 449 237.310974 440.312531 228.645172 429.596771 228.645172 C 418.881012 228.645172 410.193542 237.310974 410.193542 248 Z M 234.780624 234.31485 C 227.203018 241.873535 227.203018 254.12645 234.780624 261.685181 C 242.358231 269.243896 254.641769 269.243896 262.219391 261.685181 Z M 248.5 48 L 170.8871 48 L 170.8871 86.709686 L 248.5 86.709686 Z M 170.8871 48 C 103.018486 48 48 102.881287 48 170.580658 L 86.80645 170.580658 C 86.80645 124.259888 124.450523 86.709686 170.8871 86.709686 Z M 48 170.580658 L 48 325.419373 L 86.80645 325.419373 L 86.80645 170.580658 Z M 48 325.419373 C 48 393.119995 103.018486 448 170.8871 448 L 170.8871 409.290314 C 124.450523 409.290314 86.80645 371.73938 86.80645 325.419373 Z M 170.8871 448 L 326.112915 448 L 326.112915 409.290314 L 170.8871 409.290314 Z M 326.112915 448 C 393.982788 448 449 393.119995 449 325.419373 L 410.193542 325.419373 C 410.193542 371.73938 372.548737 409.290314 326.112915 409.290314 Z M 449 325.419373 L 449 248 L 410.193542 248 L 410.193542 325.419373 Z M 234.780624 234.31485 L 262.219391 261.685181 Z"/>
    <path id="share-2-svgrepo-com-copy" fill="#ff6900" stroke="none" d="M 429.596771 86.709686 C 440.312531 86.709686 449 78.044098 449 67.354828 C 449 56.665558 440.312531 48 429.596771 48 Z M 323.836243 48 C 313.120514 48 304.433014 56.665558 304.433014 67.354828 C 304.433014 78.044098 313.120514 86.709686 323.836243 86.709686 Z M 449 67.354828 C 449 56.665558 440.312531 48 429.596771 48 C 418.881012 48 410.193542 56.665558 410.193542 67.354828 Z M 410.193542 174.21936 C 410.193542 184.908386 418.881012 193.574188 429.596771 193.574188 C 440.312531 193.574188 449 184.908386 449 174.21936 Z M 443.316162 81.040802 C 450.893768 73.48233 450.893768 61.227356 443.316162 53.668884 C 435.738556 46.110474 423.455017 46.110474 415.877411 53.668884 Z M 234.780624 234.31485 C 227.203018 241.873535 227.203018 254.12645 234.780624 261.685181 C 242.358231 269.243896 254.641769 269.243896 262.219391 261.685181 Z M 429.596771 48 L 323.836243 48 L 323.836243 86.709686 L 429.596771 86.709686 Z M 410.193542 67.354828 L 410.193542 174.21936 L 449 174.21936 L 449 67.354828 Z M 415.877411 53.668884 L 234.780624 234.31485 L 262.219391 261.685181 L 443.316162 81.040802 Z"/>
</svg>
