<?xml version="1.0" encoding="UTF-8"?>
<!-- Generated by Pixelmator Pro 3.3.2 -->
<svg width="500" height="500" viewBox="0 0 500 500" xmlns="http://www.w3.org/2000/svg" xmlns:xlink="http://www.w3.org/1999/xlink">
    <path id="exchange-svgrepo-com" fill="#f2f2f2" stroke="none" d="M 119.469269 268.174866 C 128.955139 277.661072 144.335129 277.661072 153.820969 268.174866 C 163.306854 258.68869 163.306854 243.311279 153.820969 233.825104 L 119.469269 268.174866 Z M 40.466114 120.469238 C 30.980238 110.983429 15.600251 110.983429 6.11439 120.469238 C -3.371455 129.955078 -3.371455 145.335114 6.11439 154.820953 L 40.466114 120.469238 Z M 23.290253 113.354767 C 9.875181 113.354767 -1.000079 124.230011 -1.000079 137.645081 C -1.000079 151.060181 9.875181 161.935455 23.290253 161.935455 L 23.290253 113.354767 Z M 476.709747 161.935455 C 490.124512 161.935455 501.000061 151.060181 501.000061 137.645081 C 501.000061 124.230011 490.124512 113.354767 476.709747 113.354767 L 476.709747 161.935455 Z M 6.11439 120.469238 C -3.371455 129.955078 -3.371455 145.335114 6.11439 154.820953 C 15.600251 164.306854 30.980238 164.306854 40.466114 154.820953 L 6.11439 120.469238 Z M 153.820969 41.466125 C 163.306854 31.980255 163.306854 16.60025 153.820969 7.11441 C 144.335129 -2.37146 128.955139 -2.37146 119.469269 7.11441 L 153.820969 41.466125 Z M 380.529755 233.825104 C 371.043579 224.338928 355.666168 224.338928 346.179993 233.825104 C 336.693787 243.311279 336.693787 258.68869 346.179993 268.174866 L 380.529755 233.825104 Z M 459.534882 381.529724 C 469.021027 391.01593 484.398438 391.01593 493.884644 381.529724 C 503.370789 372.043579 503.370789 356.666138 493.884644 347.179993 L 459.534882 381.529724 Z M 476.709747 388.645203 C 490.124512 388.645203 501.000061 377.769592 501.000061 364.354858 C 501.000061 350.940125 490.124512 340.064514 476.709747 340.064514 L 476.709747 388.645203 Z M 23.290253 340.064514 C 9.875181 340.064514 -1.000079 350.940125 -1.000079 364.354858 C -1.000079 377.769592 9.875181 388.645203 23.290253 388.645203 L 23.290253 340.064514 Z M 493.884644 381.529724 C 503.370789 372.043579 503.370789 356.666138 493.884644 347.179993 C 484.398438 337.693787 469.021027 337.693787 459.534882 347.179993 L 493.884644 381.529724 Z M 346.179993 460.534851 C 336.693787 470.021057 336.693787 485.398438 346.179993 494.884644 C 355.666168 504.370819 371.043579 504.370819 380.529755 494.884644 L 346.179993 460.534851 Z M 153.820969 233.825104 L 40.466114 120.469238 L 6.11439 154.820953 L 119.469269 268.174866 L 153.820969 233.825104 Z M 23.290253 161.935455 L 476.709747 161.935455 L 476.709747 113.354767 L 23.290253 113.354767 L 23.290253 161.935455 Z M 40.466114 154.820953 L 153.820969 41.466125 L 119.469269 7.11441 L 6.11439 120.469238 L 40.466114 154.820953 Z M 346.179993 268.174866 L 459.534882 381.529724 L 493.884644 347.179993 L 380.529755 233.825104 L 346.179993 268.174866 Z M 476.709747 340.064514 L 23.290253 340.064514 L 23.290253 388.645203 L 476.709747 388.645203 L 476.709747 340.064514 Z M 459.534882 347.179993 L 346.179993 460.534851 L 380.529755 494.884644 L 493.884644 381.529724 L 459.534882 347.179993 Z"/>
</svg>
