<?xml version="1.0" encoding="UTF-8"?>
<!-- Generated by Pixelmator Pro 3.3.2 -->
<svg width="500" height="500" viewBox="0 0 500 500" xmlns="http://www.w3.org/2000/svg" xmlns:xlink="http://www.w3.org/1999/xlink">
    <g id="Group">
        <path id="arrow-swap-horizontal-svgrepo-com" fill="none" stroke="#f2f2f2" stroke-width="33.333332" d="M 345.822876 25 L 153.405975 25 C 69.82634 25 20 73.933502 20 156.015472 L 20 344.759003 C 20 427.066498 69.82634 476 153.405975 476 L 345.593292 476 C 429.172852 476 478.999207 427.066498 478.999207 344.984497 L 478.999207 156.015472 C 479.228851 73.933502 429.402496 25 345.822876 25 Z"/>
        <path id="arrow-swap-horizontal-svgrepo-com-copy-2" fill="#f2f2f2" stroke="#f2f2f2" stroke-width="8" d="M 380.265015 294.690002 C 379.346527 296.651978 378.198486 298.395996 376.591248 299.921997 L 308.854919 364.231995 C 305.410706 367.501984 301.048035 369.027954 296.685364 369.027954 C 292.322693 369.027954 287.960022 367.501984 284.515808 364.231995 C 277.856995 357.910034 277.856995 347.445984 284.515808 341.124023 L 322.861389 304.718018 L 134.807205 304.718018 C 125.393028 304.718018 117.586121 297.306 117.586121 288.367981 C 117.586121 279.429993 125.393028 272.018005 134.807205 272.018005 L 364.421631 272.018005 C 366.717773 272.018005 368.784302 272.453979 371.080475 273.325989 C 375.21347 275.069977 378.657715 278.122009 380.494598 282.263977 C 382.101929 286.187988 382.101929 290.547974 380.265015 294.690002 Z M 364.421631 227.981964 L 134.807205 227.981964 C 132.511063 227.981964 130.444534 227.54599 128.148392 226.674011 C 124.015335 224.929993 120.571121 221.877991 118.734207 217.735992 C 116.897278 213.812012 116.897278 209.233978 118.734207 205.309998 C 119.882256 203.347992 121.030342 201.604004 122.637634 200.077972 L 190.373901 135.767975 C 197.032684 129.446014 208.054199 129.446014 214.713013 135.767975 C 221.371841 142.089996 221.371841 152.553986 214.713013 158.876007 L 176.367432 195.281982 L 364.421631 195.281982 C 373.835785 195.281982 381.6427 202.69397 381.6427 211.631989 C 381.6427 220.569977 373.835785 227.981964 364.421631 227.981964 Z"/>
    </g>
</svg>
