<?xml version="1.0" encoding="UTF-8"?>
<!-- Generated by Pixelmator Pro 3.3.2 -->
<svg width="500" height="500" viewBox="0 0 500 500" xmlns="http://www.w3.org/2000/svg" xmlns:xlink="http://www.w3.org/1999/xlink">
    <path id="lock-unlock-svgrepo-com" fill="#f2f2f2" stroke="none" d="M 173.056458 362.903259 C 173.056458 376.264526 183.888397 387.096802 197.250656 387.096802 C 210.611954 387.096802 221.444214 376.264526 221.444214 362.903259 L 173.056458 362.903259 Z M 221.444214 306.45163 C 221.444214 293.090332 210.611954 282.258087 197.250656 282.258087 C 183.888397 282.258087 173.056458 293.090332 173.056458 306.45163 L 221.444214 306.45163 Z M 263.699036 140.645142 C 263.699036 154.006775 274.531311 164.838684 287.892578 164.838684 C 301.253906 164.838684 312.086151 154.006775 312.086151 140.645142 L 263.699036 140.645142 Z M 287.892578 125.806396 L 312.086151 125.806396 C 312.086151 125.473206 312.079742 125.139648 312.066803 124.806732 L 287.892578 125.806396 Z M 378.570038 24.193512 L 379.718475 0.027374 C 378.953918 -0.009064 378.189423 -0.009064 377.424866 0.027069 L 378.570038 24.193512 Z M 469.212036 125.806396 L 445.041046 124.806458 C 445.024872 125.139343 445.018494 125.4729 445.018494 125.806396 L 469.212036 125.806396 Z M 445.018494 140.645142 C 445.018494 154.006775 455.850739 164.838684 469.212036 164.838684 C 482.573334 164.838684 493.405609 154.006775 493.405609 140.645142 L 445.018494 140.645142 Z M 287.892578 140.645142 L 295.018433 117.52417 C 294.81842 117.462555 294.618439 117.403503 294.415192 117.347382 L 287.892578 140.645142 Z M 261.97644 137.096741 L 261.97644 161.290314 L 262.002258 161.290314 L 261.97644 137.096741 Z M 132.491272 137.096741 L 132.465485 161.290314 L 132.491272 161.290314 L 132.491272 137.096741 Z M 106.57515 140.645142 L 100.052887 117.347382 C 99.849342 117.40451 99.646126 117.464142 99.444191 117.526398 L 106.57515 140.645142 Z M 28.88965 250 L 53.087383 250 L 53.07901 249.545166 L 28.88965 250 Z M 28.88965 362.903259 L 53.072884 363.609711 C 53.079647 363.374207 53.083202 363.138733 53.083202 362.903259 L 28.88965 362.903259 Z M 132.491272 475.806488 L 131.728683 499.987122 C 131.98291 499.996857 132.237106 500.000061 132.491272 500.000061 L 132.491272 475.806488 Z M 262.008728 475.806488 L 262.008728 500.000061 C 262.26358 500.000061 262.518402 499.996857 262.77002 499.987122 L 262.008728 475.806488 Z M 365.612 362.903259 L 341.418427 362.903259 C 341.418427 363.138733 341.421661 363.374207 341.428101 363.609711 L 365.612 362.903259 Z M 365.612 250 L 341.418427 249.545166 L 341.418427 250 L 365.612 250 Z M 221.444214 362.903259 L 221.444214 306.45163 L 173.056458 306.45163 L 173.056458 362.903259 L 221.444214 362.903259 Z M 312.086151 140.645142 L 312.086151 125.806396 L 263.699036 125.806396 L 263.699036 140.645142 L 312.086151 140.645142 Z M 312.066803 124.806732 C 310.370026 83.823486 341.21521 50.179962 379.711975 48.359955 L 377.424866 0.027069 C 311.21521 3.157043 260.973236 60.38031 263.721619 126.806091 L 312.066803 124.806732 Z M 377.418427 48.359619 C 415.905548 50.1922 446.734619 83.832581 445.041046 124.806458 L 493.386169 126.806427 C 496.131409 60.395416 445.915253 3.178955 379.718475 0.027374 L 377.418427 48.359619 Z M 445.018494 125.806396 L 445.018494 140.645142 L 493.405609 140.645142 L 493.405609 125.806396 L 445.018494 125.806396 Z M 294.415192 117.347382 C 283.844208 114.38739 272.924866 112.891602 261.950684 112.903168 L 262.002258 161.290314 C 268.540985 161.283203 275.053864 162.174194 281.370026 163.942871 L 294.415192 117.347382 Z M 261.97644 112.903168 L 132.491272 112.903168 L 132.491272 161.290314 L 261.97644 161.290314 L 261.97644 112.903168 Z M 132.517075 112.903168 C 121.545158 112.891602 110.625793 114.38739 100.052887 117.347382 L 113.097412 163.942871 C 119.415138 162.174194 125.928383 161.283203 132.465485 161.290314 L 132.517075 112.903168 Z M 99.444191 117.526398 C 41.929966 135.266724 3.558671 189.832245 4.700275 250.454834 L 53.07901 249.545166 C 52.329975 209.777405 77.469345 174.941284 113.706116 163.763855 L 99.444191 117.526398 Z M 4.696096 250 L 4.696096 362.903259 L 53.083202 362.903259 L 53.083202 250 L 4.696096 250 Z M 4.706418 362.196777 C 2.570596 435.464539 58.829971 497.690369 131.728683 499.987122 L 133.253876 451.625854 C 88.16127 450.203308 51.680954 411.361298 53.072884 363.609711 L 4.706418 362.196777 Z M 132.491272 500.000061 L 262.008728 500.000061 L 262.008728 451.612946 L 132.491272 451.612946 L 132.491272 500.000061 Z M 262.77002 499.987122 C 335.670044 497.690369 391.92807 435.464539 389.792633 362.196777 L 341.428101 363.609711 C 342.81842 411.361298 306.337769 450.203308 261.247467 451.625854 L 262.77002 499.987122 Z M 389.805511 362.903259 L 389.805511 250 L 341.418427 250 L 341.418427 362.903259 L 389.805511 362.903259 Z M 389.799072 250.454834 C 390.937805 189.819366 352.547424 135.249969 295.018433 117.52417 L 280.77002 163.766113 C 317.015198 174.934174 342.16684 209.770966 341.421661 249.545166 L 389.799072 250.454834 Z"/>
</svg>
