<?xml version="1.0" encoding="UTF-8"?>
<!-- Generated by Pixelmator Pro 3.3.2 -->
<svg width="500" height="500" viewBox="0 0 500 500" xmlns="http://www.w3.org/2000/svg" xmlns:xlink="http://www.w3.org/1999/xlink">
    <g id="arrow-down-a-z-svgrepo-com">
        <path id="Path" fill="#f2f2f2" stroke="none" d="M 226.086411 327.143494 C 231.267456 320.290771 229.915161 310.534302 223.062408 305.353271 C 216.209686 300.172241 206.453247 301.524536 201.272217 308.377258 Z M 142.720917 385.802429 C 137.539063 392.655151 138.893219 402.411591 145.745544 407.592621 C 152.597855 412.775757 162.353485 411.421387 167.535538 404.568634 Z M 139.572693 395.185516 C 139.572693 403.776337 146.537216 410.741089 155.128235 410.741089 C 163.719238 410.741089 170.683792 403.776337 170.683792 395.185516 Z M 170.683792 104.815308 C 170.683792 96.224304 163.719238 89.259766 155.128235 89.259766 C 146.537216 89.259766 139.572693 96.224304 139.572693 104.815308 Z M 142.72258 404.570679 C 147.905685 411.421387 157.661514 412.773651 164.512985 407.590576 C 171.364075 402.40744 172.71637 392.653076 167.533875 385.800354 Z M 108.962067 308.375183 C 103.778961 301.524536 94.02314 300.172241 87.171654 305.355347 C 80.320152 310.538452 78.967651 320.292847 84.150757 327.145569 Z M 201.272217 308.377258 L 142.720917 385.802429 L 167.535538 404.568634 L 226.086411 327.143494 Z M 170.683792 395.185516 L 170.683792 104.815308 L 139.572693 104.815308 L 139.572693 395.185516 Z M 167.533875 385.800354 L 108.962067 308.375183 L 84.150757 327.145569 L 142.72258 404.570679 Z"/>
        <path id="path1" fill="#ff6900" stroke="none" d="M 341.990875 316.232178 C 330.260193 316.232178 320.749878 324.11618 320.749878 333.840881 C 320.749878 343.565552 330.260193 351.449554 341.990875 351.449554 L 341.990875 316.232178 Z M 300.570923 226.521729 L 315.561401 214.04776 C 314.745728 213.373932 313.86496 212.75647 312.930359 212.200012 L 300.570923 226.521729 Z M 286.764252 203.043488 L 307.993958 203.635132 C 308.002441 203.437927 308.00528 203.240723 308.00528 203.043488 L 286.764252 203.043488 Z M 341.990875 183.767853 C 353.721558 183.767853 363.231903 175.884094 363.231903 166.159149 C 363.231903 156.434204 353.721558 148.550446 341.990875 148.550446 L 341.990875 183.767853 Z M 341.101593 351.456604 C 352.820984 351.865112 362.722107 344.319214 363.212067 334.601563 C 363.704834 324.886261 354.602386 316.678284 342.880188 316.272095 L 341.101593 351.456604 Z M 307.824005 280.167206 C 309.356201 270.527039 301.168488 261.68045 289.537476 260.410278 C 277.907013 259.140106 267.236694 265.927673 265.705048 275.57019 L 307.824005 280.167206 Z M 363.231903 333.840881 C 363.231903 324.11618 353.721558 316.232178 341.990875 316.232178 C 330.260193 316.232178 320.749878 324.11618 320.749878 333.840881 L 363.231903 333.840881 Z M 320.749878 367.391296 C 320.749878 377.115997 330.260193 385 341.990875 385 C 353.721558 385 363.231903 377.115997 363.231903 367.391296 L 320.749878 367.391296 Z M 340.764587 148.579803 C 329.053711 149.14093 320.106995 157.466522 320.786682 167.175262 C 321.463562 176.884247 331.506287 184.299591 343.217224 183.738464 L 340.764587 148.579803 Z M 383.88382 180.646179 L 368.043701 192.379883 L 368.043701 192.379883 L 383.88382 180.646179 Z M 376.183258 214.935242 C 374.549133 224.56601 382.643341 233.471313 394.257935 234.826019 C 405.875366 236.180695 416.617645 229.470612 418.251801 219.842163 L 376.183258 214.935242 Z M 320.749878 166.159149 C 320.749878 175.884094 330.260193 183.767853 341.990875 183.767853 C 353.721558 183.767853 363.231903 175.884094 363.231903 166.159149 L 320.749878 166.159149 Z M 363.231903 132.608704 C 363.231903 122.883789 353.721558 115 341.990875 115 C 330.260193 115 320.749878 122.883789 320.749878 132.608704 L 363.231903 132.608704 Z M 341.990875 351.449554 C 353.834869 351.449554 371.637695 349.16748 387.265411 341.560547 C 403.977814 333.425293 418.458527 318.833557 418.458527 296.510437 L 375.976501 296.510437 C 375.976501 304.051666 372.051178 308.125122 365.755341 311.189056 C 358.374786 314.781219 348.56427 316.232178 341.990875 316.232178 L 341.990875 351.449554 Z M 418.458527 296.510437 C 418.458527 282.824951 413.41449 271.621155 404.173248 262.544434 C 395.597565 254.122787 384.348297 248.51619 374.370667 244.132797 C 352.792633 234.656982 333.31604 228.7099 315.561401 214.04776 L 285.579559 238.995728 C 309.245758 258.541382 338.093872 268.054779 354.483429 275.253235 C 363.489624 279.20929 368.63562 282.242676 371.711334 285.261993 C 374.118652 287.626282 375.976501 290.662018 375.976501 296.510437 L 418.458527 296.510437 Z M 312.930359 212.200012 C 309.840485 210.368713 307.849518 207.178009 307.993958 203.635132 L 265.535431 202.451385 C 264.923401 217.529572 273.328033 232.015656 288.212921 240.843475 L 312.930359 212.200012 Z M 308.00528 203.043488 C 308.00528 196.826691 309.6026 193.416199 310.964844 191.556274 C 312.304443 189.723328 314.218994 188.297241 317.051117 187.111115 C 323.630157 184.354797 332.845917 183.767853 341.990875 183.767853 L 341.990875 148.550446 C 332.715668 148.550446 314.320923 148.796967 297.891724 155.678436 C 289.219147 159.311218 280.778809 164.905182 274.643005 173.289734 C 268.527008 181.647278 265.523254 191.651611 265.523254 203.043488 L 308.00528 203.043488 Z M 342.880188 316.272095 C 332.698639 315.917572 323.012756 311.928619 316.272247 305.094086 L 283.384399 327.386688 C 297.665161 341.865723 318.594635 350.674805 341.101593 351.456604 L 342.880188 316.272095 Z M 316.272247 305.094086 C 309.514801 298.240784 306.390961 289.187561 307.824005 280.167206 L 265.705048 275.57019 C 262.758759 294.115662 269.12149 312.924072 283.384399 327.386688 L 316.272247 305.094086 Z M 320.749878 333.840881 L 320.749878 367.391296 L 363.231903 367.391296 L 363.231903 333.840881 L 320.749878 333.840881 Z M 343.217224 183.738464 C 352.458466 183.295471 361.589264 186.391083 368.043701 192.379883 L 399.72113 168.912659 C 384.773132 155.047577 363.146942 147.50708 340.764587 148.579803 L 343.217224 183.738464 Z M 368.043701 192.379883 C 374.526459 198.393646 377.585175 206.675598 376.183258 214.935242 L 418.251801 219.842163 C 421.372803 201.446014 414.640808 182.752625 399.72113 168.912659 L 368.043701 192.379883 Z M 363.231903 166.159149 L 363.231903 132.608704 L 320.749878 132.608704 L 320.749878 166.159149 L 363.231903 166.159149 Z"/>
    </g>
</svg>
