<?xml version="1.0" encoding="UTF-8"?>
<!-- Generated by Pixelmator Pro 3.3.2 -->
<svg width="500" height="500" viewBox="0 0 500 500" xmlns="http://www.w3.org/2000/svg" xmlns:xlink="http://www.w3.org/1999/xlink">
    <g id="Group">
        <path id="Path" fill="none" stroke="#ff6900" stroke-width="25" stroke-linejoin="round" d="M 292.646362 250.099945 C 292.646362 273.911804 273.343018 293.215118 249.531174 293.215118 C 225.71933 293.215118 206.416016 273.911804 206.416016 250.099945 C 206.416016 226.288086 225.71933 206.984741 249.531174 206.984741 C 273.343018 206.984741 292.646362 226.288086 292.646362 250.099945 Z"/>
        <path id="path1" fill="none" stroke="#f2f2f2" stroke-width="20" stroke-linecap="round" stroke-linejoin="round" d="M 249.531174 131.533203 C 156.729431 131.533203 87.335564 208.780518 64.022324 238.57309 C 58.659225 245.42627 58.659225 254.773621 64.022324 261.62677 C 87.335564 291.419373 156.729431 368.666687 249.531174 368.666687 C 342.332306 368.666687 411.726166 291.419373 435.04071 261.62677 C 440.404205 254.773621 440.404205 245.42627 435.04071 238.57309 C 411.726166 208.780518 342.332306 131.533203 249.531174 131.533203 Z"/>
    </g>
</svg>
